<svg width="48" height="48" viewBox="0 0 48 48" fill="none" xmlns="http://www.w3.org/2000/svg">
<path d="M24 6C14.0591 6 6 14.0591 6 24C6 33.9409 14.0591 42 24 42C33.9409 42 42 33.9409 42 24C42 14.0591 33.9409 6 24 6ZM40.8295 24C40.8295 33.2942 33.2953 40.8295 24 40.8295C14.7047 40.8295 7.17051 33.2942 7.17051 24C7.17051 14.7058 14.7058 7.17051 24 7.17051C33.2942 7.17051 40.8295 14.7058 40.8295 24Z" fill="#757575"/>
<path d="M32.6579 16.3376C32.9018 16.5994 33.2534 17.0217 33.4508 17.2782L37.0867 14.9704C36.9051 14.7329 36.6158 14.3718 36.3994 14.1174L34.0969 15.6398L33.9396 15.7749L34.0568 15.6039L35.0734 13.5748L34.3545 12.8558L32.3243 13.8725L32.1533 13.9897L32.2895 13.8324L33.8129 11.5309C33.5447 11.3029 33.2872 11.0938 32.9588 10.8405L30.651 14.4732C30.9435 14.6981 31.3288 15.0285 31.5748 15.2534L33.7474 14.1259L33.8868 14.0235L33.7844 14.1628L32.6579 16.3376Z" fill="#757575"/>
<path d="M24.4075 11.7336L25.4009 9.50815L25.4643 9.31073L25.4463 9.5166L25.5508 12.4906C25.8992 12.5233 26.2592 12.5718 26.614 12.631L26.4524 8.22651C25.9562 8.17161 25.4622 8.13255 24.9681 8.11144L23.9894 10.5406L23.9546 10.7212L23.9198 10.5406L22.9422 8.11144C22.4481 8.13255 21.954 8.17161 21.4578 8.22651L21.2963 12.631C21.651 12.5718 22.011 12.5243 22.3594 12.4906L22.4639 9.5166L22.446 9.31073L22.5093 9.50815L23.5028 11.7336H24.4075Z" fill="#757575"/>
<path d="M16.3724 15.2439C16.9467 14.6389 17.2719 13.9401 16.6976 13.2728C16.3851 12.9107 15.8604 12.8316 15.4255 13.01L15.3822 13.0269L15.3959 12.9889C15.4603 12.8168 15.5015 12.2678 15.0338 11.8888C14.8057 11.704 14.5196 11.6354 14.2304 11.665C13.6909 11.7199 13.276 12.0883 12.1464 13.3478C11.8054 13.7279 11.3092 14.3275 11.0115 14.716L14.1143 17.6594C15.1425 16.5213 15.5616 16.0979 16.3724 15.2439ZM12.3238 14.5239C12.9487 13.7595 13.6128 13.0659 13.9137 12.7914C14.0087 12.7049 14.1121 12.6183 14.2378 12.5845C14.4415 12.5286 14.6516 12.6732 14.6991 12.8822C14.7466 13.0923 14.6147 13.2918 14.4679 13.4565C14.1375 13.8292 12.9255 15.0971 12.9255 15.0971L12.3238 14.5239ZM13.5389 15.6767C13.5389 15.6767 14.7192 14.4289 15.1045 14.0298C15.2576 13.8714 15.3558 13.7754 15.4613 13.7236C15.5975 13.6571 15.7464 13.6434 15.8794 13.7321C16.0103 13.8197 16.0705 13.9707 16.0378 14.1206C15.9987 14.299 15.853 14.469 15.7327 14.5988C15.5701 14.773 14.1702 16.2711 14.1681 16.2732L13.5389 15.6767Z" fill="#757575"/>
<path d="M33.9 24C33.9 18.5324 29.4676 14.1 24 14.1V13.2C29.9647 13.2 34.8 18.0353 34.8 24H33.9Z" fill="#757575"/>
<path d="M24 33.9C18.5324 33.9 14.1 29.4676 14.1 24H13.2C13.2 29.9647 18.0353 34.8 24 34.8V33.9Z" fill="#757575"/>
<path d="M24 24C9.6 24 13.2 24 13.2 24C13.2 18.0353 18.0353 13.2 24 13.2V24Z" fill="#757575"/>
<path d="M24 24C38.4 24 34.8 24 34.8 24C34.8 29.9647 29.9647 34.8 24 34.8V24Z" fill="#757575"/>
</svg>
