<svg width="60" height="60" viewBox="0 0 60 60" fill="none" xmlns="http://www.w3.org/2000/svg">
<path d="M27.5 28.3333H29.1667C29.6334 28.3333 30 28.7 30 29.1667C30 29.6333 29.6334 30 29.1667 30H27.5C27.0334 30 26.6667 29.6333 26.6667 29.1667C26.6667 28.7 27.0334 28.3333 27.5 28.3333ZM35.8334 28.3333H37.5C37.9667 28.3333 38.3334 28.7 38.3334 29.1667C38.3334 29.6333 37.9667 30 37.5 30H35.8334C35.3667 30 35 29.6333 35 29.1667C35 28.7 35.3667 28.3333 35.8334 28.3333ZM55 20C54.35 20 53.7834 20.3833 53.5167 20.9333L51.5834 16.05C51.3334 15.4167 50.7167 15 50.0334 15H23.3334C22.75 15 22.2 15.3 21.9 15.8167L17.3167 23.45L7.71671 24.65C5.21671 24.9667 3.33337 27.1 3.33337 29.6167V36.9833C3.33337 37.4833 3.56671 37.95 3.95004 38.2667L5.61671 39.6333C5.91671 39.8667 6.28337 40 6.66671 40H8.55004C9.28337 42.8833 11.9 45 15 45C18.1 45 20.7334 42.8667 21.4667 39.9667H36.8667C37.6 42.8667 40.2167 45 43.3334 45C46.45 45 49.05 42.8833 49.7834 40H51.6667C52.1167 40 52.5334 39.8167 52.85 39.5167L54.5167 37.85C54.8167 37.5333 55 37.1167 55 36.6667V33.3333C55.9167 33.3333 56.6667 32.5833 56.6667 31.6667V21.6667C56.6667 20.75 55.9167 20 55 20ZM43.3334 18.3333H48.9L51.5334 25H43.3334V18.3333ZM35.0334 18.3333H41.6667V25H35L35.0334 18.3333ZM24.2834 18.3333H30V23.3333L28.3334 25H20.2834L24.2834 18.3333ZM15 41.6667C13.1667 41.6667 11.6667 40.1667 11.6667 38.3333C11.6667 36.5 13.1667 35 15 35C16.8334 35 18.3334 36.5 18.3334 38.3333C18.3334 40.1667 16.8334 41.6667 15 41.6667ZM43.3334 41.6667C41.5 41.6667 40 40.1667 40 38.3333C40 36.5 41.5 35 43.3334 35C45.1667 35 46.6667 36.5 46.6667 38.3333C46.6667 40.1667 45.1667 41.6667 43.3334 41.6667ZM51.6667 35.9833L50.9834 36.6667H49.7834C49.05 33.7833 46.4334 31.6667 43.3334 31.6667C40.2334 31.6667 37.6 33.8 36.8667 36.7H21.4667C20.7334 33.8 18.1167 31.6667 15 31.6667C11.8834 31.6667 9.28337 33.7833 8.55004 36.6667H7.25004L6.66671 36.1833V31.6667H9.16671C9.63337 31.6667 10 31.3 10 30.8333C10 30.3667 9.63337 30 9.16671 30H6.66671V29.6167C6.66671 28.7667 7.30004 28.0667 8.13337 27.95L18.3334 26.6667H28.3334C28.7834 26.6667 29.2 26.5 29.5167 26.1833L31.1834 24.5167C31.5 24.2 31.6667 23.7833 31.6667 23.3333V18.3333H33.3667L33.3334 25C33.3334 25.9167 34.0834 26.6667 35 26.6667H51.6667V35.9833Z" fill="#757575"/>
</svg>
