<svg width="48" height="48" viewBox="0 0 48 48" fill="none" xmlns="http://www.w3.org/2000/svg">
<path fill-rule="evenodd" clip-rule="evenodd" d="M45.2116 19.2456H32.6306C32.3119 19.2456 32.1022 19.1533 32.1022 18.7088V16.8468C32.1366 16.6155 32.0594 16.3815 31.8941 16.2162C31.7287 16.0508 31.4948 15.9736 31.2635 16.0081H16.9128C16.6814 15.9736 16.4475 16.0508 16.2822 16.2162C16.1168 16.3815 16.0396 16.6155 16.074 16.8468V18.7172C16.074 19.1114 15.8895 19.254 15.5456 19.254H7.29249C6.79011 19.219 6.31758 19.4952 6.10149 19.9501L2.08396 27.8006C2.02983 27.9042 2.00108 28.0192 2.00008 28.1361C1.99702 28.3351 2.07822 28.526 2.22362 28.6618C2.36902 28.7977 2.56506 28.8657 2.76333 28.8491H15.5372C15.9314 28.8491 16.0656 29.0252 16.0656 29.3858V31.2562C16.0312 31.4875 16.1084 31.7215 16.2738 31.8868C16.4391 32.0522 16.6731 32.1294 16.9044 32.0949H31.2886C31.5207 32.1332 31.757 32.0573 31.9234 31.891C32.0897 31.7246 32.1656 31.4883 32.1274 31.2562V29.3775C32.1274 28.9916 32.2867 28.8407 32.6558 28.8407H40.6573C41.164 28.8984 41.653 28.6339 41.8818 28.1781L45.849 20.4198C45.9437 20.2843 45.9962 20.1238 46 19.9585C45.998 19.7612 45.9153 19.5732 45.7711 19.4385C45.6269 19.3038 45.4338 19.2341 45.2368 19.2456H45.2116ZM42.0745 22.374L40.1622 26.1148C40.0586 26.2793 39.8683 26.3678 39.6758 26.3412H30.1478C29.7536 26.3412 29.611 26.5174 29.611 26.878V29.0336C29.611 29.3942 29.4516 29.562 29.0742 29.562H19.0933C18.7578 29.562 18.5565 29.4445 18.5565 29.0252V26.878C18.5565 26.4838 18.3803 26.3412 18.0197 26.3412H6.36969C6.24758 26.3529 6.12609 26.3135 6.03397 26.2325C5.94185 26.1515 5.8873 26.0361 5.88323 25.9135C5.88323 25.8433 5.90051 25.7741 5.93355 25.7122L7.84586 21.9714C7.92135 21.8372 8.03877 21.745 8.33232 21.745H18.0197C18.3552 21.745 18.5649 21.6108 18.5649 21.2082V19.0527C18.5649 18.6752 18.7326 18.5159 19.1017 18.5159H29.0742C29.4348 18.5159 29.611 18.6752 29.611 19.0527V21.2082C29.611 21.5772 29.7871 21.745 30.1562 21.745H41.6132C41.7718 21.7281 41.927 21.7991 42.0179 21.9302C42.1087 22.0612 42.1208 22.2314 42.0494 22.374H42.0745Z" fill="#757575"/>
</svg>
