<?xml version="1.0" standalone="no"?>
<!DOCTYPE svg PUBLIC "-//W3C//DTD SVG 20010904//EN"
 "http://www.w3.org/TR/2001/REC-SVG-20010904/DTD/svg10.dtd">
<svg version="1.0" xmlns="http://www.w3.org/2000/svg"
 width="32.000000pt" height="32.000000pt" viewBox="0 0 24.000000 24.000000"
 preserveAspectRatio="xMidYMid meet">

<g transform="translate(0.000000,24.000000) scale(0.100000,-0.100000)"
fill="#fff" stroke="none">
<path d="M43 173 c-21 -4 -28 -14 -24 -35 0 -5 -3 -8 -7 -8 -4 0 -9 -11 -10
-25 -1 -18 3 -25 16 -25 10 0 23 -5 29 -11 8 -8 13 -8 17 0 9 14 113 15 121 1
8 -13 55 18 55 37 0 8 -4 11 -10 8 -5 -3 -10 0 -10 7 0 28 -122 63 -177 51z
m47 -18 c0 -9 -9 -15 -25 -15 -31 0 -33 17 -2 23 12 2 23 5 25 6 1 0 2 -6 2
-14z m70 -5 c11 -7 5 -10 -22 -10 -21 0 -38 5 -38 10 0 13 40 13 60 0z m-83
-55 c4 -4 3 -5 -4 -2 -6 4 -13 2 -15 -5 -2 -6 -10 -8 -16 -4 -7 4 -10 11 -7
16 6 10 31 7 42 -5z m140 0 c4 -4 2 -5 -4 -1 -7 4 -13 2 -13 -3 0 -6 -4 -11
-8 -11 -5 0 -9 6 -9 14 0 15 21 16 34 1z"/>
</g>
</svg>
