<svg width="60" height="60" viewBox="0 0 60 60" fill="none" xmlns="http://www.w3.org/2000/svg">
<path d="M56.35 24.0167C56.0334 23.5834 55.5334 23.3334 55 23.3334H48.7667C46.95 22.3167 39.3834 18.3334 33.3334 18.3334C27.2834 18.3334 22.25 19.2 17.6 23.4C15.6 23.6167 8.83337 24.45 5.53337 25.9334C4.16671 26.55 3.33337 27.9667 3.33337 29.6334V35.0834C3.33337 35.5334 3.51671 35.9667 3.85004 36.2834L5.51671 37.8667C5.83337 38.1667 6.23337 38.3334 6.66671 38.3334H10.5667C11.5 40.3 13.5167 41.6667 15.8334 41.6667C18.15 41.6667 20.1667 40.3 21.1 38.3334H35.5667C36.5 40.3 38.5167 41.6667 40.8334 41.6667C43.15 41.6667 45.1667 40.3 46.1 38.3334H50C50.4334 38.3334 50.8334 38.1667 51.15 37.8667L52.8167 36.2834C53.0167 36.1 53.1667 35.8667 53.25 35.6L56.5834 25.5167C56.75 25.0167 56.6667 24.45 56.35 24.0167ZM33.3334 21.6667C34.9 21.6667 36.6334 22 38.3334 22.5L35.4834 25.35H20.4334C23.65 22.6834 27.3167 21.6667 33.3334 21.6667ZM15.8334 38.3334C14.45 38.3334 13.3334 37.2167 13.3334 35.8334C13.3334 34.45 14.45 33.3334 15.8334 33.3334C17.2167 33.3334 18.3334 34.45 18.3334 35.8334C18.3334 37.2167 17.2167 38.3334 15.8334 38.3334ZM40.8334 38.3334C39.45 38.3334 38.3334 37.2167 38.3334 35.8334C38.3334 34.45 39.45 33.3334 40.8334 33.3334C42.2167 33.3334 43.3334 34.45 43.3334 35.8334C43.3334 37.2167 42.2167 38.3334 40.8334 38.3334ZM50.2167 34.1667L49.3334 35H46.6C46.2 32.1834 43.7667 30 40.8334 30C37.9 30 35.4667 32.1834 35.0667 35H21.6C21.2 32.1834 18.7667 30 15.8334 30C12.9 30 10.4667 32.1834 10.0667 35H7.33337L6.66671 34.3667V31.6667H9.16671C9.63337 31.6667 10 31.3 10 30.8334C10 30.3667 9.63337 30 9.16671 30H6.66671V29.6334C6.66671 29.3167 6.76671 29.0334 6.90004 28.9834C8.81671 28.1167 12.6 27.4334 15.4834 27.0167H35.8334C36.05 27.0167 36.2667 26.9167 36.4167 26.7667L40.1167 23.0667C44.0834 24.4667 47.45 26.4167 47.5 26.4334C47.75 26.5834 48.0334 26.6667 48.3334 26.6667H52.7L50.2167 34.1667ZM32.5 28.3334H34.1667C34.6334 28.3334 35 28.7 35 29.1667C35 29.6334 34.6334 30 34.1667 30H32.5C32.0334 30 31.6667 29.6334 31.6667 29.1667C31.6667 28.7 32.0334 28.3334 32.5 28.3334Z" fill="#757575"/>
</svg>
