<svg width="48" height="48" viewBox="0 0 48 48" fill="none" xmlns="http://www.w3.org/2000/svg">
<path d="M21.742 21.8536C21.7074 21.86 21.6778 21.8452 21.6634 21.7691C21.6356 21.5673 21.701 21.2972 21.9166 21.1067C22.0249 21.011 22.1709 20.9892 22.2606 21.0664C22.3612 21.1522 22.3137 21.3662 22.2125 21.5145C22.1013 21.6781 21.9136 21.8193 21.742 21.8536Z" fill="#757575"/>
<path d="M33.1676 25.5464C33.1174 25.5285 33.0655 25.4907 33.0594 25.4512C33.0532 25.4273 33.053 25.4024 33.0674 25.3732C33.2533 24.9961 33.3857 24.5157 32.9707 24.3178C32.5697 24.1249 31.9586 24.4779 31.4058 25.1584C30.9524 25.7153 30.7068 26.282 30.6986 26.834C30.6953 27.0302 30.7702 27.2727 30.9435 27.3626C31.3335 27.5683 31.8053 27.2623 32.145 26.9812C32.3702 26.7963 32.5562 26.604 32.7214 26.3576C32.7361 26.3357 32.7505 26.3144 32.7646 26.2937C32.7758 26.2772 32.7867 26.2611 32.7975 26.2452C32.9398 26.0361 33.0536 25.8688 33.1758 25.6069C33.1951 25.5649 33.1861 25.5526 33.1676 25.5464Z" fill="#757575"/>
<path fill-rule="evenodd" clip-rule="evenodd" d="M23.9993 16.4103C12.2547 16.4103 2.7348 19.6557 2.7348 23.627C2.7348 27.5986 12.2547 30.8443 23.9993 30.8443C35.7438 30.8443 45.2631 27.5986 45.2631 23.627C45.2631 19.6557 35.7438 16.4103 23.9993 16.4103ZM10.5884 26.2597C10.7153 27.6034 11.8219 28.3791 13.0778 28.3708C14.0775 28.363 15.0196 28.0603 16.1525 26.9102C17.1849 25.8617 18.1272 24.3074 19.0106 22.8504L19.0716 22.7498C19.0998 22.7022 19.1199 22.6761 19.257 22.6597C19.822 22.5891 20.656 22.5085 21.1909 22.4776C21.3096 22.471 21.3339 22.4722 21.3814 22.5317C21.5211 22.7075 21.7303 22.8567 21.8978 22.9474L21.9059 22.9518C21.9823 22.9931 22.0207 23.0139 22.0826 23.0151C22.1618 23.0166 22.2237 22.9742 22.2632 22.9289C22.3193 22.8666 22.3358 22.7853 22.3049 22.7328C22.2923 22.711 22.2257 22.6652 22.1495 22.6127C22.0336 22.533 21.8952 22.4378 21.889 22.3874C21.8804 22.3352 21.938 22.3228 21.938 22.3228C22.2119 22.2369 22.4973 22.0599 22.6701 21.729C22.8398 21.4028 22.8673 20.968 22.557 20.7261C22.284 20.5138 21.8723 20.5473 21.5434 20.8422C21.2221 21.1287 21.1153 21.5452 21.1591 21.9105C21.1667 21.9734 21.1635 21.994 21.0771 22.0022C20.7441 22.0288 20.4195 22.0437 20.0812 22.0592C19.9172 22.0667 19.75 22.0743 19.5772 22.0835C19.5408 22.086 19.5305 22.0627 19.5511 22.0382C20.1609 20.9785 21.0714 20.224 22.0787 19.481C22.1337 19.4395 22.129 19.3677 22.1245 19.2991C22.1236 19.2846 22.1227 19.2702 22.1223 19.2563C22.6901 19.3797 23.252 19.5363 23.8137 19.6929C25.0508 20.0378 26.2872 20.3824 27.5847 20.3711C28.3649 20.3648 29.1119 20.2459 29.826 19.8543C30.4538 19.5119 30.7087 19.195 30.7273 18.866C30.7419 18.6383 30.5838 18.4945 30.3585 18.5435C28.4521 18.9814 26.6338 18.9767 24.7371 18.747C23.9937 18.6568 23.2606 18.5338 22.5311 18.4114C20.8315 18.1263 19.1516 17.8445 17.4072 17.9887C15.337 18.1629 13.3672 19.3285 13.3631 21.098C13.361 21.9951 13.9987 22.7223 14.9872 22.6902C16.1487 22.6509 17.1022 21.7204 17.6013 20.5473C17.791 20.1022 17.4398 19.9172 17.2732 20.1736C16.9753 20.6351 16.5551 20.9937 16.1011 21.2162C15.5544 21.4837 14.9704 21.4115 14.7933 20.9675C14.5443 20.3416 15.062 19.4048 16.2432 18.964C17.8236 18.379 19.4722 18.6946 21.072 19.0009C21.1988 19.0252 21.3252 19.0494 21.4514 19.0731C21.476 19.0731 21.5674 19.1237 21.4863 19.1661C21.4445 19.1888 21.4028 19.211 21.3607 19.2334C21.0933 19.3756 20.8119 19.5252 20.4041 19.8758C20.066 20.1656 19.6234 20.5513 19.2808 20.9713C19.0848 21.21 18.9217 21.4338 18.7576 21.659C18.6371 21.8244 18.516 21.9906 18.381 22.1639C18.3365 22.2223 18.282 22.2203 18.2826 22.2203C18.2121 22.2322 18.1417 22.2437 18.0715 22.2552C17.3681 22.3706 16.6815 22.4832 16.0482 22.9237C15.9044 23.0232 15.8417 23.1994 15.9291 23.3348C16.0077 23.4545 16.1871 23.4673 16.3118 23.3763C16.7448 23.0528 17.1902 22.9007 17.7012 22.8863C17.724 22.8884 17.7343 22.8904 17.7404 22.9048C17.7445 22.9127 17.7404 22.9287 17.7322 22.9411C16.9669 24.0027 16.7753 24.2426 16.1996 24.9009C15.9051 25.2392 15.6154 25.5248 15.2916 25.822C13.9844 27.0365 12.5784 27.0155 12.074 26.254C11.7727 25.7971 11.8125 25.3174 12.0098 24.9194C12.2531 24.4318 12.7447 24.0747 13.1532 23.8661C13.305 23.7887 13.3487 23.5945 13.1968 23.4178C13.1001 23.3018 12.8659 23.2822 12.6917 23.3141C12.1562 23.413 11.5235 23.8177 11.1496 24.3048C10.7283 24.8515 10.5178 25.5151 10.5884 26.2597ZM37.4438 21.0591C37.5103 21.0591 37.5417 21.0975 37.5118 21.1502L37.5111 21.1487C37.4613 21.2349 37.152 21.7132 36.7303 22.3652L36.7298 22.366C35.6719 24.0019 33.907 26.731 33.7549 27.1103C33.6879 27.2784 33.68 27.4064 33.7487 27.499C33.9249 27.7375 34.3172 27.5989 34.5633 27.4271C35.0864 27.0665 35.494 26.6517 35.8896 26.2492C36.0457 26.0903 36.2 25.9333 36.3588 25.7822C36.3905 25.7583 36.4458 25.7491 36.4835 25.7811C36.5118 25.8075 36.5445 25.8365 36.5787 25.8667C36.6443 25.9249 36.7152 25.9876 36.77 26.045C36.8095 26.0872 36.7947 26.1287 36.7741 26.1546C36.2269 26.8232 35.6211 27.4545 35.0422 27.9014C34.1404 28.5994 33.2419 28.7765 32.7966 28.3296C32.6305 28.1629 32.5408 27.9246 32.5284 27.7238C32.5231 27.6146 32.4673 27.6092 32.4153 27.6598C31.8839 28.1857 30.9605 28.7683 30.1199 28.3538C29.4175 28.0066 29.2549 27.1692 29.3866 26.4625C29.3887 26.4472 29.3736 26.3475 29.2881 26.4071C29.1414 26.5119 28.9504 26.6278 28.7125 26.716C28.42 26.8253 28.2828 26.8675 28.0116 26.8633C27.6708 26.8611 27.3635 26.7161 27.1466 26.3786C27.0259 26.1961 26.9765 25.9181 26.9641 25.7148C26.9629 25.6922 26.9333 25.6529 26.9012 25.7046C26.4618 26.3755 26.045 27.0295 25.6185 27.6989L25.6164 27.7022C25.4867 27.9058 25.356 28.1108 25.2236 28.3181C25.1942 28.3595 25.168 28.387 25.1094 28.3891L24.8424 28.389C24.5668 28.3888 24.2769 28.3886 23.9851 28.39C23.9156 28.39 23.8831 28.3374 23.9197 28.2705C23.9957 28.124 24.2003 27.8035 24.4655 27.3881C24.8981 26.7106 25.4917 25.7807 25.9511 24.9417C26.1554 24.5703 26.1143 24.3785 25.9869 24.296C25.8283 24.1932 25.5129 24.348 25.2463 24.5511C24.6365 25.013 24.1088 25.6909 23.7719 26.1237C23.7073 26.2067 23.6497 26.2807 23.5998 26.3425C23.5412 26.4151 23.4836 26.4987 23.4167 26.596C23.2754 26.8012 23.0923 27.0672 22.7692 27.418C22.0198 28.2314 21.027 28.6986 20.0698 28.3758C19.5469 28.1998 19.1688 27.7791 19.0243 27.2638C18.9955 27.1636 18.9398 27.1359 18.8855 27.2019C18.7307 27.3945 18.4145 27.6785 18.1501 27.8577C18.1215 27.8779 18.0502 27.9205 17.9887 27.8902C17.9332 27.8655 17.7368 27.588 17.6983 27.5082C17.6695 27.4491 17.695 27.3858 17.7292 27.3553C18.1069 27.0236 18.3135 26.8353 18.4781 26.6284C18.6001 26.4746 18.6945 26.3012 18.805 26.0231C19.0343 25.4444 19.5577 24.3625 20.6016 23.8034C21.0003 23.59 21.4039 23.4367 21.8512 23.3847C22.0443 23.3637 22.2024 23.388 22.259 23.5383C22.2674 23.5628 22.2806 23.5985 22.2955 23.639C22.3191 23.7028 22.347 23.7785 22.3674 23.8403C22.388 23.9018 22.373 23.9483 22.3005 23.9763C21.6848 24.21 21.0675 24.5729 20.6408 25.1441C20.1572 25.7929 20.0262 26.5743 20.3506 27.0235C20.5868 27.3491 20.9685 27.406 21.3357 27.2896C21.8931 27.1138 22.3673 26.5942 22.6113 26.0181C22.8771 25.3892 22.9201 24.6444 22.7243 23.9894C22.6916 23.8768 22.7204 23.789 22.794 23.7283C22.9151 23.6308 23.0731 23.5504 23.159 23.5067C23.1785 23.4968 23.1943 23.4887 23.2051 23.4828C23.3321 23.412 23.4833 23.4639 23.5551 23.5688C23.7579 23.8704 23.8688 24.295 23.8791 24.7335C23.8919 24.826 23.9312 24.8283 23.9764 24.7806C24.0675 24.6834 24.1571 24.5846 24.2463 24.4863C24.5128 24.1924 24.7759 23.9024 25.0663 23.6691C25.4199 23.3872 25.8735 23.1567 26.2982 23.167C26.8452 23.1791 27.1186 23.5514 27.1001 24.2131C27.0983 24.2979 27.1596 24.2921 27.1995 24.2347C27.3634 24.0017 27.4709 23.8856 27.6604 23.7284C28.0383 23.4165 28.4261 23.2758 28.8305 23.3042C29.3283 23.3408 29.7261 23.7966 29.6449 24.3135C29.5923 24.6466 29.412 24.9402 29.1052 25.0922C28.8452 25.2192 28.5414 25.1978 28.3291 25.0075C28.1551 24.8478 28.0989 24.62 28.1448 24.3909C28.1545 24.3438 28.093 24.299 28.0418 24.3521C27.5552 24.8585 27.5193 25.5133 27.8373 25.8082C28.1887 26.1336 28.7138 25.9156 29.0972 25.6656C29.5054 25.3988 29.8601 25.0772 30.2094 24.7605C30.4613 24.5322 30.7103 24.3064 30.9745 24.1056C31.393 23.7877 31.8689 23.5059 32.4032 23.4341C32.6991 23.3948 32.9837 23.4162 33.2749 23.5343C33.6569 23.6887 33.8994 24.0115 33.9301 24.2923C33.9373 24.3748 33.9994 24.3849 34.0504 24.3129C34.154 24.151 34.4125 23.759 34.7132 23.3033C35.2904 22.4283 36.0227 21.3183 36.1104 21.1504C36.1509 21.0701 36.1954 21.0599 36.2814 21.0599C36.4637 21.0599 36.67 21.0597 36.8741 21.0595C37.0741 21.0593 37.2723 21.0591 37.4438 21.0591Z" fill="#757575"/>
<path fill-rule="evenodd" clip-rule="evenodd" d="M23.9998 15C11.2335 15 1 18.8266 1 23.6242C1 28.3927 11.3179 32.2488 23.9998 32.2488C36.6821 32.2488 47 28.3797 47 23.6242C47 18.8687 36.6821 15 23.9998 15ZM23.9993 31.4983C11.8272 31.4983 1.95987 27.9743 1.95987 23.627C1.95987 19.2791 11.8272 15.7556 23.9993 15.7556C36.1704 15.7556 46.0371 19.2791 46.0371 23.627C46.0371 27.9743 36.1704 31.4983 23.9993 31.4983Z" fill="#757575"/>
</svg>
