<svg width="60" height="60" viewBox="0 0 60 60" fill="none" xmlns="http://www.w3.org/2000/svg">
<path d="M53.15 24.25L49.8167 17.5833C49.5334 17.0166 48.9667 16.6666 48.3334 16.6666H30C29.7167 16.6666 29.45 16.7333 29.2 16.8666C29.05 16.95 25.4667 18.9333 20.8834 23.4333L12.6334 24.6166C10.1834 24.95 8.33337 27.0833 8.33337 29.55V35C8.33337 35.45 8.51671 35.8666 8.81671 36.1833L10.4834 37.85C10.8 38.15 11.2167 38.3333 11.6667 38.3333H13.4C13.8 41.15 16.2334 43.3333 19.1667 43.3333C22.1 43.3333 24.5334 41.15 24.9334 38.3333H36.7334C37.1334 41.15 39.5667 43.3333 42.5 43.3333C45.4334 43.3333 47.8667 41.15 48.2667 38.3333H50C50.45 38.3333 50.8667 38.15 51.1834 37.85L52.85 36.1833C53.15 35.8666 53.3334 35.45 53.3334 35V25C53.3334 24.7333 53.2667 24.4833 53.15 24.25ZM38.3334 20H47.3L49.8 25H38.3334V20ZM30.45 20H36.6667V25H24.0667C27.1167 22.15 29.5834 20.5333 30.45 20ZM19.1667 40C17.7834 40 16.6667 38.8833 16.6667 37.5C16.6667 36.1166 17.7834 35 19.1667 35C20.55 35 21.6667 36.1166 21.6667 37.5C21.6667 38.8833 20.55 40 19.1667 40ZM42.5 40C41.1167 40 40 38.8833 40 37.5C40 36.1166 41.1167 35 42.5 35C43.8834 35 45 36.1166 45 37.5C45 38.8833 43.8834 40 42.5 40ZM50 34.3166L49.3167 35H47.7667C46.8334 33.0333 44.8167 31.6666 42.5 31.6666C40.1834 31.6666 38.1667 33.0333 37.2334 35H24.4334C23.5 33.0333 21.4834 31.6666 19.1667 31.6666C16.85 31.6666 14.8334 33.0333 13.9 35H12.35L11.6667 34.3166V31.6666H14.1667C14.6334 31.6666 15 31.3 15 30.8333C15 30.3666 14.6334 30 14.1667 30H11.6667V29.55C11.6667 28.7333 12.2834 28.0166 13.1 27.9L21.7834 26.6666H50V34.3166ZM32.5 28.3333H34.1667C34.6334 28.3333 35 28.7 35 29.1666C35 29.6333 34.6334 30 34.1667 30H32.5C32.0334 30 31.6667 29.6333 31.6667 29.1666C31.6667 28.7 32.0334 28.3333 32.5 28.3333ZM44.1667 28.3333H45.8334C46.3 28.3333 46.6667 28.7 46.6667 29.1666C46.6667 29.6333 46.3 30 45.8334 30H44.1667C43.7 30 43.3334 29.6333 43.3334 29.1666C43.3334 28.7 43.7 28.3333 44.1667 28.3333Z" fill="#757575"/>
</svg>
