<svg width="48" height="48" viewBox="0 0 48 48" fill="none" xmlns="http://www.w3.org/2000/svg">
<path d="M32.285 11.5232C31.4571 15.286 31.1309 17.0145 30.4588 19.7389C29.8138 22.3536 29.3142 24.7794 28.4502 25.9556C27.5731 27.149 26.4035 27.4088 25.6068 27.5002C25.1944 27.5474 24.8937 27.5686 24.0006 27.5721C23.1073 27.5684 22.8068 27.5474 22.3944 27.5002C21.5978 27.4088 20.4275 27.149 19.551 25.9556C18.6873 24.7792 18.1874 22.3531 17.5419 19.7389C16.8701 17.0143 16.5433 15.2859 15.7161 11.5232C15.7161 11.5232 14.8907 11.556 14.5253 11.5822C14.0312 11.618 13.6445 11.6611 13.2232 11.7182C13.2232 11.7182 13.698 19.4565 13.9131 22.735C14.1391 26.1835 14.536 31.9942 14.909 36.3819C14.909 36.3819 15.6019 36.4942 16.7529 36.5616C17.9634 36.6324 18.5016 36.6402 18.5016 36.6402C18.9997 34.7074 19.6155 32.0249 20.3149 30.8808C20.8833 29.9504 21.759 29.8519 22.2555 29.7826C23.0354 29.6743 23.6931 29.6578 23.9978 29.6675H24.0039C24.3085 29.6572 24.9666 29.6741 25.7465 29.7826C26.2425 29.8519 27.1187 29.9504 27.6871 30.8808C28.3865 32.0249 29.0024 34.7074 29.5008 36.6402C29.5008 36.6402 30.039 36.632 31.2495 36.5616C32.4001 36.4942 33.0934 36.3819 33.0934 36.3819C33.466 31.994 33.8632 26.184 34.0899 22.735C34.3049 19.4563 34.7792 11.7182 34.7792 11.7182C34.3582 11.6611 33.9715 11.6186 33.4771 11.5822C33.1102 11.5561 32.285 11.5232 32.285 11.5232Z" fill="#757575"/>
<path d="M40.0794 24.3475C39.794 28.2736 39.4516 30.6279 38.9621 32.3251C38.5321 33.8117 37.9993 34.8104 37.2214 35.5283C35.9227 36.7263 34.1342 36.9835 33.0848 37.1428C30.8178 37.4857 27.0002 37.6049 23.9996 37.606C20.999 37.6051 17.1818 37.4859 14.9144 37.1428C13.8656 36.9837 12.0775 36.7263 10.779 35.5283C10.0007 34.8104 9.46777 33.8111 9.03826 32.3251C8.54841 30.6281 8.20582 28.2736 7.92092 24.3475C7.7489 21.981 7.78526 18.1467 8.0435 16.086C8.42773 13.0134 9.92373 11.4657 13.1297 10.8829C14.6257 10.6112 16.6367 10.4183 18.5452 10.3222C20.0754 10.217 22.594 10.164 23.9998 10.1774C25.4062 10.164 27.9248 10.217 29.4545 10.3222C31.3629 10.4187 33.3739 10.6114 34.8699 10.8829C38.0759 11.4657 39.5719 13.0129 39.9571 16.0856C40.2149 18.1467 40.2507 21.981 40.0794 24.3475ZM41.8453 16.0916C41.3559 11.1767 38.1404 10.1388 35.3175 9.65616C33.8945 9.41281 31.3672 9.20686 29.7469 9.13915C28.3311 9.04677 24.9913 9.00036 23.9998 9C23.0089 9.00059 19.6689 9.04677 18.253 9.13915C16.6327 9.20686 14.1054 9.41281 12.683 9.65616C9.85981 10.1388 6.64414 11.1767 6.15429 16.0916C6.02088 17.4303 5.98262 19.1772 6.0068 21.0582C6.04713 24.1725 6.30939 26.2756 6.45953 27.7314C6.56268 28.7307 6.97205 31.7345 7.49786 33.2883C8.21993 35.4233 8.86904 36.0451 9.63333 36.6803C11.0306 37.8424 13.3318 38.1997 13.8222 38.2896C16.4205 38.766 21.6788 38.8518 24 38.8487C26.3218 38.8518 31.5806 38.766 34.1778 38.2896C34.6688 38.1997 36.9698 37.8422 38.3671 36.6803C39.1313 36.0451 39.7805 35.4233 40.5025 33.2883C41.0282 31.7345 41.4371 28.7307 41.5408 27.7314C41.6908 26.2756 41.9533 24.1725 41.993 21.0582C42.0176 19.1772 41.9793 17.4298 41.8453 16.0916Z" fill="#757575"/>
</svg>
