<svg width="48" height="48" viewBox="0 0 48 48" fill="none" xmlns="http://www.w3.org/2000/svg">
<path d="M21.6301 23.1118C22.0602 23.1118 22.5492 23.0562 23.0426 22.9529C24.8374 22.5728 26.5832 21.9382 28.2002 21.3092C32.5621 19.6501 34.6991 18.0064 35.2492 17.5441C35.3559 17.4597 35.4237 17.403 35.4604 17.3608C35.5693 17.2552 35.6893 17.1085 35.6893 16.8918C35.6893 16.4895 35.2225 16.3639 34.9436 16.2872C34.9136 16.2784 34.8803 16.2706 34.8536 16.2595C31.633 15.2982 27.9012 14.7892 24.065 14.7892H23.8372C23.2671 14.8103 22.7314 14.9348 22.318 15.1382C20.9678 15.8105 20.3188 17.3674 19.9321 18.2998C19.8898 18.3965 19.852 18.4854 19.8198 18.5654C19.1019 20.2302 18.9886 21.4626 19.492 22.2294C19.8798 22.814 20.5988 23.1118 21.6301 23.1118ZM20.1065 18.691C20.1421 18.6065 20.181 18.5176 20.2232 18.421C20.5933 17.5297 21.2112 16.0394 22.4592 15.4193C22.8315 15.236 23.3227 15.1237 23.8472 15.1015H24.0672C27.8724 15.1015 31.573 15.6082 34.7669 16.5629C34.7969 16.5717 34.8291 16.5817 34.8647 16.5895C35.057 16.6418 35.3792 16.7307 35.3792 16.8907C35.3792 16.9718 35.3403 17.0385 35.2359 17.1418C35.2025 17.1774 35.1503 17.2252 35.0536 17.3008C34.5091 17.7564 32.4065 19.3722 28.0879 21.0136C26.4854 21.6393 24.754 22.2716 22.9815 22.6461C22.5058 22.7451 22.0413 22.7951 21.6324 22.7951C20.7122 22.7951 20.0832 22.5484 19.7598 22.0549C19.3164 21.3837 19.4364 20.2502 20.1065 18.691Z" fill="#757575"/>
<path d="M23.9994 13C11.8706 13 2 18.0798 2 24.3253C2 30.5698 11.8706 35.6484 23.9994 35.6484C36.1327 35.6484 46 30.5698 46 24.3253C45.9989 18.0798 36.1327 13 23.9994 13ZM23.9994 35.3062C12.0584 35.3062 2.34339 30.3797 2.34339 24.3242C2.34339 18.2676 12.0584 13.3412 23.9994 13.3412C35.9438 13.3412 45.6588 18.2676 45.6588 24.3242C45.6577 30.3797 35.9427 35.3062 23.9994 35.3062Z" fill="#757575"/>
<path d="M17.0671 16.1928C17.2071 15.9627 17.1482 15.7638 17.0538 15.6671C16.906 15.4938 16.5481 15.4727 15.9869 15.586C8.59895 17.0852 3.82366 20.5124 3.82366 24.3253C3.82366 26.4201 5.2828 28.4238 8.03885 30.1197C8.23777 30.2353 8.41113 30.2919 8.58227 30.2919H8.58339C8.84677 30.2719 8.97901 30.1152 9.07903 29.9541C9.11793 29.8863 9.16904 29.7796 9.22239 29.6707L9.26351 29.584C11.6628 24.0275 14.29 19.4956 16.866 16.4684C16.9604 16.3517 17.0127 16.2784 17.0671 16.1928ZM16.7959 16.0283C16.7504 16.1039 16.7037 16.1706 16.6237 16.2695C14.0299 19.3156 11.3839 23.8753 8.97568 29.4529L8.93789 29.5318C8.889 29.6385 8.84454 29.7363 8.8112 29.7919C8.72674 29.9219 8.6634 29.9708 8.57338 29.9763C8.47003 29.9763 8.34779 29.9363 8.20443 29.8519C5.54618 28.2149 4.14038 26.3035 4.14038 24.3242C4.14038 20.6691 8.81565 17.3608 16.0514 15.8927C16.257 15.8516 16.437 15.8294 16.577 15.8294C16.7693 15.8294 16.8093 15.8694 16.8093 15.8694C16.8471 15.905 16.8382 15.9627 16.7959 16.0283Z" fill="#757575"/>
<path d="M26.441 25.5178C26.012 25.5178 25.523 25.5733 25.0252 25.6767C23.1437 26.0723 21.3479 26.7524 19.9132 27.3003L19.8732 27.317C15.4946 28.9839 13.362 30.6276 12.8086 31.0943C12.7764 31.1265 12.7441 31.151 12.7152 31.1765C12.6719 31.2121 12.6363 31.2432 12.6063 31.2721C12.5119 31.3655 12.3841 31.5177 12.3841 31.7355C12.3841 32.1423 12.8997 32.289 13.1753 32.3679L13.2275 32.3856C16.4448 33.3369 20.1721 33.8404 24.0072 33.8404H24.0317C24.0561 33.8404 24.0884 33.8437 24.1272 33.8437C24.1573 33.8437 24.195 33.8437 24.2239 33.8404C24.7662 33.8315 25.3208 33.7025 25.7509 33.497C27.1144 32.8157 27.7601 31.2454 28.148 30.3097C28.1813 30.2219 28.2169 30.1408 28.2469 30.0686C28.9692 28.4027 29.0748 27.1692 28.5736 26.4024C28.1902 25.8156 27.4734 25.5178 26.441 25.5178ZM27.9601 29.943C27.929 30.0152 27.8957 30.0986 27.8601 30.1875C27.4878 31.0832 26.8688 32.5846 25.6153 33.2125C25.0763 33.4725 24.5918 33.5247 24.0083 33.5247C20.2054 33.5247 16.5081 33.0247 13.3209 32.0834L13.2664 32.0667C13.0953 32.0178 12.6974 31.9033 12.6974 31.7355C12.6974 31.6555 12.7352 31.5877 12.8297 31.4955C12.8541 31.471 12.8853 31.4466 12.9208 31.4144C12.9519 31.3899 12.9831 31.361 13.0153 31.3299C13.5576 30.8765 15.6502 29.2595 19.9854 27.6115L20.0254 27.5948C21.4557 27.0525 23.2338 26.3757 25.0919 25.9856C25.5686 25.8856 26.0343 25.8323 26.441 25.8323C27.3578 25.8323 27.9868 26.0834 28.3124 26.5735C28.7536 27.2459 28.6336 28.3794 27.9601 29.943Z" fill="#757575"/>
<path d="M40.0278 18.5254C39.8378 18.4087 39.6844 18.3532 39.5466 18.3532C39.5189 18.3532 39.4955 18.3565 39.4955 18.3565C39.2699 18.3676 39.1043 18.4843 38.9965 18.691C38.9265 18.8021 38.8476 18.9622 38.8065 19.0544C37.4652 22.1927 34.6924 28.0671 31.1996 32.1745C31.1063 32.2856 31.0507 32.3601 31.0007 32.4545C30.8851 32.6479 30.8918 32.8446 31.0174 32.9858C31.104 33.0813 31.2485 33.1291 31.4619 33.1291C31.6097 33.1291 31.7942 33.1069 32.0242 33.0624C39.41 31.5522 44.183 28.1249 44.183 24.3198C44.1841 22.2016 42.7472 20.1979 40.0278 18.5254ZM31.9653 32.7568C31.7575 32.7957 31.5897 32.8135 31.463 32.8135C31.2918 32.8135 31.253 32.7779 31.253 32.7779C31.2129 32.7313 31.2463 32.6535 31.2763 32.6079C31.313 32.5423 31.3507 32.4868 31.4419 32.379C34.9636 28.2382 37.7474 22.3305 39.0921 19.1844C39.1555 19.0477 39.2166 18.9299 39.271 18.8466C39.3344 18.7255 39.3988 18.6766 39.5144 18.6688C39.5144 18.6688 39.5344 18.6688 39.5466 18.6688C39.6233 18.6688 39.7256 18.7088 39.8623 18.7932C42.4849 20.4035 43.8741 22.315 43.8741 24.3198C43.8741 27.9671 39.1966 31.2777 31.9653 32.7568Z" fill="#757575"/>
<path d="M23.9983 35.464C36.0482 35.464 45.8155 30.4775 45.8155 24.3242C45.8155 18.1731 36.0482 13.1856 23.9983 13.1856C11.9584 13.1856 2.18448 18.1731 2.18448 24.3242C2.18448 30.4775 11.9584 35.464 23.9983 35.464ZM28.1046 30.0052C27.7479 30.8409 27.1156 32.6379 25.6786 33.3525C25.2463 33.5636 24.7085 33.6703 24.2206 33.6814C24.1161 33.6892 24.0383 33.6814 24.0072 33.6814C20.0599 33.6814 16.3725 33.1502 13.2731 32.2312C13.0464 32.1634 12.5419 32.0423 12.5419 31.7344C12.5419 31.5933 12.6141 31.4855 12.7197 31.3821C12.7652 31.3377 12.8297 31.2855 12.9175 31.211C13.6354 30.5998 15.8269 29.0251 19.9309 27.4637C21.3734 26.9147 23.1726 26.2268 25.0607 25.83C26.1732 25.5967 30.2794 24.9754 28.1046 30.0052ZM39.1288 18.7777C39.201 18.6354 39.3077 18.5232 39.4955 18.5143C39.6022 18.501 39.7333 18.5276 39.9434 18.6577C42.5072 20.2357 44.0252 22.1916 44.0252 24.3198C44.0252 28.166 39.0777 31.4633 31.9975 32.9091C31.5363 32.998 31.2385 32.998 31.1352 32.8813C31.0651 32.8046 31.0474 32.6835 31.1352 32.5335C31.1807 32.4501 31.2274 32.3845 31.3207 32.2756C35.177 27.737 38.1219 21.0559 38.9476 19.1189C39.0099 18.9911 39.0788 18.8588 39.1288 18.7777ZM19.9654 18.6277C20.3232 17.7931 20.9478 15.9939 22.3881 15.2771C22.8259 15.0615 23.3671 14.9637 23.845 14.9448H24.0661C28.0246 14.9448 31.7064 15.4827 34.8147 16.4117C35.0392 16.4806 35.5348 16.5706 35.5348 16.8907C35.5348 17.0363 35.4559 17.1441 35.3537 17.2452C35.3114 17.2941 35.2437 17.3485 35.1548 17.4186C34.4302 18.0276 32.2498 19.5989 28.1457 21.1603C26.7033 21.7215 24.8929 22.3983 23.0126 22.7995C21.898 23.0329 17.7928 23.6541 19.9654 18.6277ZM16.0191 15.7405C16.4781 15.6471 16.8271 15.6471 16.9293 15.7683C16.9971 15.8372 17.0249 15.9616 16.9293 16.1105C16.8815 16.1883 16.836 16.2595 16.7471 16.3728C12.8853 20.9047 9.95141 27.5948 9.11793 29.5218C9.05458 29.6585 8.99013 29.7941 8.94345 29.8785C8.85677 30.0152 8.75897 30.1219 8.57227 30.1341C8.47781 30.1341 8.33334 30.1097 8.12219 29.9852C5.56507 28.4127 3.98257 26.4502 3.98257 24.3253C3.98257 20.4824 8.94234 17.1763 16.0191 15.7405Z" fill="#757575"/>
</svg>
