<?xml version="1.0" encoding="iso-8859-1"?>
<!-- Generator: Adobe Illustrator 25.2.0, SVG Export Plug-In . SVG Version: 6.00 Build 0)  -->
<svg version="1.1" id="Capa_1" xmlns="http://www.w3.org/2000/svg" xmlns:xlink="http://www.w3.org/1999/xlink" x="0px" y="0px"
	 viewBox="0 0 80 80" style="enable-background:new 0 0 80 80;" xml:space="preserve">
<linearGradient id="SVGID_1_" gradientUnits="userSpaceOnUse" x1="40" y1="7.5698" x2="40" y2="72.2067" gradientTransform="matrix(1 0 0 -1 0 79.8898)">
	<stop  offset="0" style="stop-color:#FA1E00"/>
	<stop  offset="1" style="stop-color:#FA9300"/>
</linearGradient>
<path style="fill:url(#SVGID_1_);" d="M39.382,22.226l-13.714,6.095c-0.551,0.245-0.906,0.79-0.906,1.393v9.05
	c0.004,7.192,3.903,13.818,10.19,17.312l4.308,2.394c0.461,0.256,1.02,0.256,1.481,0l4.308-2.394
	c6.286-3.494,10.186-10.12,10.19-17.312v-9.05c0-0.603-0.355-1.148-0.905-1.393l-13.714-6.095
	C40.225,22.051,39.775,22.051,39.382,22.226z M52.19,30.705v8.06c-0.002,6.087-3.302,11.695-8.622,14.653L40,55.4l-3.568-1.981
	c-5.321-2.958-8.621-8.567-8.622-14.655v-8.06L40,25.287L52.19,30.705z"/>
<linearGradient id="SVGID_2_" gradientUnits="userSpaceOnUse" x1="13.1515" y1="7.5698" x2="13.1515" y2="72.2067" gradientTransform="matrix(1 0 0 -1 0 79.8898)">
	<stop  offset="0" style="stop-color:#FA1E00"/>
	<stop  offset="1" style="stop-color:#FA9300"/>
</linearGradient>
<path style="fill:url(#SVGID_2_);" d="M11.005,18.04l1.959-2.335l2.335,1.958l-1.958,2.336L11.005,18.04z"/>
<linearGradient id="SVGID_3_" gradientUnits="userSpaceOnUse" x1="9.6477" y1="7.5698" x2="9.6477" y2="72.2067" gradientTransform="matrix(1 0 0 -1 0 79.8898)">
	<stop  offset="0" style="stop-color:#FA1E00"/>
	<stop  offset="1" style="stop-color:#FA9300"/>
</linearGradient>
<path style="fill:url(#SVGID_3_);" d="M7.566,23.415l1.524-2.639l2.639,1.524l-1.524,2.64L7.566,23.415z"/>
<linearGradient id="SVGID_4_" gradientUnits="userSpaceOnUse" x1="7.0659" y1="7.5698" x2="7.0659" y2="72.2067" gradientTransform="matrix(1 0 0 -1 0 79.8898)">
	<stop  offset="0" style="stop-color:#FA1E00"/>
	<stop  offset="1" style="stop-color:#FA9300"/>
</linearGradient>
<path style="fill:url(#SVGID_4_);" d="M5.113,29.304l1.042-2.862l2.864,1.042l-1.042,2.862L5.113,29.304z"/>
<linearGradient id="SVGID_5_" gradientUnits="userSpaceOnUse" x1="5.4851" y1="7.5698" x2="5.4851" y2="72.2067" gradientTransform="matrix(1 0 0 -1 0 79.8898)">
	<stop  offset="0" style="stop-color:#FA1E00"/>
	<stop  offset="1" style="stop-color:#FA9300"/>
</linearGradient>
<path style="fill:url(#SVGID_5_);" d="M3.72,35.53l0.529-3.001l3.001,0.529l-0.529,3.002L3.72,35.53z"/>
<linearGradient id="SVGID_6_" gradientUnits="userSpaceOnUse" x1="4.9524" y1="7.5698" x2="4.9524" y2="72.2067" gradientTransform="matrix(1 0 0 -1 0 79.8898)">
	<stop  offset="0" style="stop-color:#FA1E00"/>
	<stop  offset="1" style="stop-color:#FA9300"/>
</linearGradient>
<path style="fill:url(#SVGID_6_);" d="M3.429,38.857h3.048v3.048H3.429V38.857z"/>
<linearGradient id="SVGID_7_" gradientUnits="userSpaceOnUse" x1="5.4859" y1="7.5698" x2="5.4859" y2="72.2067" gradientTransform="matrix(1 0 0 -1 0 79.8898)">
	<stop  offset="0" style="stop-color:#FA1E00"/>
	<stop  offset="1" style="stop-color:#FA9300"/>
</linearGradient>
<path style="fill:url(#SVGID_7_);" d="M3.721,45.23l3.001-0.529l0.529,3.001L4.25,48.231L3.721,45.23z"/>
<linearGradient id="SVGID_8_" gradientUnits="userSpaceOnUse" x1="7.0655" y1="7.5698" x2="7.0655" y2="72.2067" gradientTransform="matrix(1 0 0 -1 0 79.8898)">
	<stop  offset="0" style="stop-color:#FA1E00"/>
	<stop  offset="1" style="stop-color:#FA9300"/>
</linearGradient>
<path style="fill:url(#SVGID_8_);" d="M5.112,51.458l2.864-1.042l1.042,2.862L6.155,54.32L5.112,51.458z"/>
<linearGradient id="SVGID_9_" gradientUnits="userSpaceOnUse" x1="9.6469" y1="7.5698" x2="9.6469" y2="72.2067" gradientTransform="matrix(1 0 0 -1 0 79.8898)">
	<stop  offset="0" style="stop-color:#FA1E00"/>
	<stop  offset="1" style="stop-color:#FA9300"/>
</linearGradient>
<path style="fill:url(#SVGID_9_);" d="M7.565,57.347l2.639-1.524l1.524,2.639l-2.639,1.524L7.565,57.347z"/>
<linearGradient id="SVGID_10_" gradientUnits="userSpaceOnUse" x1="13.1515" y1="7.5698" x2="13.1515" y2="72.2067" gradientTransform="matrix(1 0 0 -1 0 79.8898)">
	<stop  offset="0" style="stop-color:#FA1E00"/>
	<stop  offset="1" style="stop-color:#FA9300"/>
</linearGradient>
<path style="fill:url(#SVGID_10_);" d="M11.005,62.721l2.335-1.958l1.958,2.335l-2.335,1.958L11.005,62.721z"/>
<linearGradient id="SVGID_11_" gradientUnits="userSpaceOnUse" x1="66.8482" y1="7.5698" x2="66.8482" y2="72.2067" gradientTransform="matrix(1 0 0 -1 0 79.8898)">
	<stop  offset="0" style="stop-color:#FA1E00"/>
	<stop  offset="1" style="stop-color:#FA9300"/>
</linearGradient>
<path style="fill:url(#SVGID_11_);" d="M64.702,17.664l2.335-1.958l1.958,2.335L66.66,20L64.702,17.664z"/>
<linearGradient id="SVGID_12_" gradientUnits="userSpaceOnUse" x1="70.3531" y1="7.5698" x2="70.3531" y2="72.2067" gradientTransform="matrix(1 0 0 -1 0 79.8898)">
	<stop  offset="0" style="stop-color:#FA1E00"/>
	<stop  offset="1" style="stop-color:#FA9300"/>
</linearGradient>
<path style="fill:url(#SVGID_12_);" d="M68.272,22.299l2.639-1.524l1.524,2.639l-2.639,1.525L68.272,22.299z"/>
<linearGradient id="SVGID_13_" gradientUnits="userSpaceOnUse" x1="72.9338" y1="7.5698" x2="72.9338" y2="72.2067" gradientTransform="matrix(1 0 0 -1 0 79.8898)">
	<stop  offset="0" style="stop-color:#FA1E00"/>
	<stop  offset="1" style="stop-color:#FA9300"/>
</linearGradient>
<path style="fill:url(#SVGID_13_);" d="M70.981,27.484l2.864-1.042l1.042,2.862l-2.864,1.043L70.981,27.484z"/>
<linearGradient id="SVGID_14_" gradientUnits="userSpaceOnUse" x1="74.5141" y1="7.5698" x2="74.5141" y2="72.2067" gradientTransform="matrix(1 0 0 -1 0 79.8898)">
	<stop  offset="0" style="stop-color:#FA1E00"/>
	<stop  offset="1" style="stop-color:#FA9300"/>
</linearGradient>
<path style="fill:url(#SVGID_14_);" d="M72.749,33.058l3.001-0.529l0.529,3.001l-3.001,0.529L72.749,33.058z"/>
<linearGradient id="SVGID_15_" gradientUnits="userSpaceOnUse" x1="75.0476" y1="7.5698" x2="75.0476" y2="72.2067" gradientTransform="matrix(1 0 0 -1 0 79.8898)">
	<stop  offset="0" style="stop-color:#FA1E00"/>
	<stop  offset="1" style="stop-color:#FA9300"/>
</linearGradient>
<path style="fill:url(#SVGID_15_);" d="M73.524,38.857h3.048v3.048h-3.048V38.857z"/>
<linearGradient id="SVGID_16_" gradientUnits="userSpaceOnUse" x1="74.5153" y1="7.5698" x2="74.5153" y2="72.2067" gradientTransform="matrix(1 0 0 -1 0 79.8898)">
	<stop  offset="0" style="stop-color:#FA1E00"/>
	<stop  offset="1" style="stop-color:#FA9300"/>
</linearGradient>
<path style="fill:url(#SVGID_16_);" d="M72.75,47.705l0.529-3.002l3.002,0.529l-0.529,3.001L72.75,47.705z"/>
<linearGradient id="SVGID_17_" gradientUnits="userSpaceOnUse" x1="72.9356" y1="7.5698" x2="72.9356" y2="72.2067" gradientTransform="matrix(1 0 0 -1 0 79.8898)">
	<stop  offset="0" style="stop-color:#FA1E00"/>
	<stop  offset="1" style="stop-color:#FA9300"/>
</linearGradient>
<path style="fill:url(#SVGID_17_);" d="M70.983,53.279l1.042-2.862l2.864,1.042l-1.042,2.862L70.983,53.279z"/>
<linearGradient id="SVGID_18_" gradientUnits="userSpaceOnUse" x1="70.3523" y1="7.5698" x2="70.3523" y2="72.2067" gradientTransform="matrix(1 0 0 -1 0 79.8898)">
	<stop  offset="0" style="stop-color:#FA1E00"/>
	<stop  offset="1" style="stop-color:#FA9300"/>
</linearGradient>
<path style="fill:url(#SVGID_18_);" d="M68.271,58.463l1.524-2.639l2.639,1.524l-1.524,2.639L68.271,58.463z"/>
<linearGradient id="SVGID_19_" gradientUnits="userSpaceOnUse" x1="66.8627" y1="7.5698" x2="66.8627" y2="72.2067" gradientTransform="matrix(1 0 0 -1 0 79.8898)">
	<stop  offset="0" style="stop-color:#FA1E00"/>
	<stop  offset="1" style="stop-color:#FA9300"/>
</linearGradient>
<path style="fill:url(#SVGID_19_);" d="M64.716,63.119l1.959-2.334l2.335,1.959l-1.96,2.335L64.716,63.119z"/>
<linearGradient id="SVGID_20_" gradientUnits="userSpaceOnUse" x1="40" y1="7.5698" x2="40" y2="72.2067" gradientTransform="matrix(1 0 0 -1 0 79.8898)">
	<stop  offset="0" style="stop-color:#FA1E00"/>
	<stop  offset="1" style="stop-color:#FA9300"/>
</linearGradient>
<path style="fill-rule:evenodd;clip-rule:evenodd;fill:url(#SVGID_20_);" d="M40,67.809c15.148,0,27.429-12.28,27.429-27.429
	c0-15.148-12.28-27.429-27.429-27.429s-27.429,12.28-27.429,27.429C12.571,55.529,24.852,67.809,40,67.809z M40,70.857
	c16.832,0,30.476-13.645,30.476-30.476C70.476,23.549,56.832,9.905,40,9.905c-16.831,0-30.476,13.645-30.476,30.476
	C9.524,57.212,23.169,70.857,40,70.857z"/>
<linearGradient id="SVGID_21_" gradientUnits="userSpaceOnUse" x1="39.9345" y1="7.5698" x2="39.9346" y2="72.2067" gradientTransform="matrix(1 0 0 -1 0 79.8898)">
	<stop  offset="0" style="stop-color:#FA1E00"/>
	<stop  offset="1" style="stop-color:#FA9300"/>
</linearGradient>
<path style="fill:url(#SVGID_21_);" d="M37.649,46.22c0.404,0,0.792-0.161,1.077-0.446l9.143-9.143l-2.155-2.155l-8.065,8.065
	l-3.494-3.494L32,41.202l4.571,4.571C36.857,46.059,37.245,46.22,37.649,46.22z"/>
</svg>
