<?xml version="1.0" encoding="iso-8859-1"?>
<!-- Generator: Adobe Illustrator 25.2.0, SVG Export Plug-In . SVG Version: 6.00 Build 0)  -->
<svg version="1.1" id="Capa_1" xmlns="http://www.w3.org/2000/svg" xmlns:xlink="http://www.w3.org/1999/xlink" x="0px" y="0px"
	 viewBox="0 0 80 80" style="enable-background:new 0 0 80 80;" xml:space="preserve">
<linearGradient id="SVGID_1_" gradientUnits="userSpaceOnUse" x1="40" y1="4.677" x2="40" y2="75.9392" gradientTransform="matrix(1 0 0 -1 0 79.8898)">
	<stop  offset="0" style="stop-color:#FA1E00"/>
	<stop  offset="1" style="stop-color:#FA9300"/>
</linearGradient>
<path style="fill:url(#SVGID_1_);" d="M68,6.4H12C8.909,6.404,6.404,8.909,6.4,12v42.56c0.004,3.091,2.509,5.596,5.6,5.6h18.891
	l-0.84,6.72H27.68c-1.856,0-3.36,1.504-3.36,3.36c0,1.855,1.504,3.36,3.36,3.36h24.64c1.855,0,3.36-1.505,3.36-3.36
	c0-1.856-1.505-3.36-3.36-3.36h-2.371l-0.84-6.72H68c3.091-0.004,5.596-2.508,5.6-5.6V12C73.596,8.909,71.091,6.404,68,6.4z
	 M12,8.64h56c1.855,0,3.36,1.504,3.36,3.36v3.36H8.64V12C8.64,10.144,10.144,8.64,12,8.64z M71.36,17.6v31.36H8.64V17.6H71.36z
	 M53.44,70.24c0,0.618-0.501,1.12-1.12,1.12H27.68c-0.618,0-1.12-0.502-1.12-1.12s0.502-1.12,1.12-1.12h24.64
	C52.938,69.12,53.44,69.621,53.44,70.24z M47.691,66.88H32.309l0.84-6.72h13.702L47.691,66.88z M68,57.92H12
	c-1.856,0-3.36-1.504-3.36-3.36V51.2h62.72v3.36C71.36,56.415,69.855,57.92,68,57.92z"/>
<linearGradient id="SVGID_2_" gradientUnits="userSpaceOnUse" x1="65.76" y1="4.677" x2="65.76" y2="75.9392" gradientTransform="matrix(1 0 0 -1 0 79.8898)">
	<stop  offset="0" style="stop-color:#FA1E00"/>
	<stop  offset="1" style="stop-color:#FA9300"/>
</linearGradient>
<path style="fill:url(#SVGID_2_);" d="M64.64,53.44h2.24v2.24h-2.24V53.44z"/>
<linearGradient id="SVGID_3_" gradientUnits="userSpaceOnUse" x1="14.24" y1="4.677" x2="14.24" y2="75.9392" gradientTransform="matrix(1 0 0 -1 0 79.8898)">
	<stop  offset="0" style="stop-color:#FA1E00"/>
	<stop  offset="1" style="stop-color:#FA9300"/>
</linearGradient>
<path style="fill:url(#SVGID_3_);" d="M13.12,10.88h2.24v2.24h-2.24V10.88z"/>
<linearGradient id="SVGID_4_" gradientUnits="userSpaceOnUse" x1="18.72" y1="4.677" x2="18.72" y2="75.9392" gradientTransform="matrix(1 0 0 -1 0 79.8898)">
	<stop  offset="0" style="stop-color:#FA1E00"/>
	<stop  offset="1" style="stop-color:#FA9300"/>
</linearGradient>
<path style="fill:url(#SVGID_4_);" d="M17.6,10.88h2.24v2.24H17.6V10.88z"/>
<linearGradient id="SVGID_5_" gradientUnits="userSpaceOnUse" x1="23.2" y1="4.677" x2="23.2" y2="75.9392" gradientTransform="matrix(1 0 0 -1 0 79.8898)">
	<stop  offset="0" style="stop-color:#FA1E00"/>
	<stop  offset="1" style="stop-color:#FA9300"/>
</linearGradient>
<path style="fill:url(#SVGID_5_);" d="M22.08,10.88h2.24v2.24h-2.24V10.88z"/>
<linearGradient id="SVGID_6_" gradientUnits="userSpaceOnUse" x1="56.1" y1="4.677" x2="56.1" y2="75.9392" gradientTransform="matrix(1 0 0 -1 0 79.8898)">
	<stop  offset="0" style="stop-color:#FA1E00"/>
	<stop  offset="1" style="stop-color:#FA9300"/>
</linearGradient>
<path style="fill:url(#SVGID_6_);" d="M44.48,24.46h23.24v1.68H44.48V24.46z"/>
<linearGradient id="SVGID_7_" gradientUnits="userSpaceOnUse" x1="57.64" y1="4.677" x2="57.64" y2="75.9392" gradientTransform="matrix(1 0 0 -1 0 79.8898)">
	<stop  offset="0" style="stop-color:#FA1E00"/>
	<stop  offset="1" style="stop-color:#FA9300"/>
</linearGradient>
<path style="fill:url(#SVGID_7_);" d="M47.56,21.1h20.16v1.68H47.56V21.1z"/>
<linearGradient id="SVGID_8_" gradientUnits="userSpaceOnUse" x1="45.32" y1="4.677" x2="45.32" y2="75.9392" gradientTransform="matrix(1 0 0 -1 0 79.8898)">
	<stop  offset="0" style="stop-color:#FA1E00"/>
	<stop  offset="1" style="stop-color:#FA9300"/>
</linearGradient>
<path style="fill:url(#SVGID_8_);" d="M44.48,21.1h1.68v1.68h-1.68V21.1z"/>
<linearGradient id="SVGID_9_" gradientUnits="userSpaceOnUse" x1="39.72" y1="4.677" x2="39.72" y2="75.9392" gradientTransform="matrix(1 0 0 -1 0 79.8898)">
	<stop  offset="0" style="stop-color:#FA1E00"/>
	<stop  offset="1" style="stop-color:#FA9300"/>
</linearGradient>
<path style="fill:url(#SVGID_9_);" d="M42.24,20.26H37.2c-0.464,0-0.84,0.376-0.84,0.84v5.04c0,0.464,0.376,0.84,0.84,0.84h5.04
	c0.464,0,0.84-0.376,0.84-0.84V21.1C43.08,20.636,42.704,20.26,42.24,20.26z M41.4,25.3h-3.36v-3.36h3.36V25.3z"/>
<linearGradient id="SVGID_10_" gradientUnits="userSpaceOnUse" x1="57.64" y1="4.677" x2="57.64" y2="75.9392" gradientTransform="matrix(1 0 0 -1 0 79.8898)">
	<stop  offset="0" style="stop-color:#FA1E00"/>
	<stop  offset="1" style="stop-color:#FA9300"/>
</linearGradient>
<path style="fill:url(#SVGID_10_);" d="M47.56,33.98h20.16v1.68H47.56V33.98z"/>
<linearGradient id="SVGID_11_" gradientUnits="userSpaceOnUse" x1="56.1" y1="4.677" x2="56.1" y2="75.9392" gradientTransform="matrix(1 0 0 -1 0 79.8898)">
	<stop  offset="0" style="stop-color:#FA1E00"/>
	<stop  offset="1" style="stop-color:#FA9300"/>
</linearGradient>
<path style="fill:url(#SVGID_11_);" d="M44.48,30.62h23.24v1.68H44.48V30.62z"/>
<linearGradient id="SVGID_12_" gradientUnits="userSpaceOnUse" x1="45.32" y1="4.677" x2="45.32" y2="75.9392" gradientTransform="matrix(1 0 0 -1 0 79.8898)">
	<stop  offset="0" style="stop-color:#FA1E00"/>
	<stop  offset="1" style="stop-color:#FA9300"/>
</linearGradient>
<path style="fill:url(#SVGID_12_);" d="M44.48,33.98h1.68v1.68h-1.68V33.98z"/>
<linearGradient id="SVGID_13_" gradientUnits="userSpaceOnUse" x1="39.72" y1="4.677" x2="39.72" y2="75.9392" gradientTransform="matrix(1 0 0 -1 0 79.8898)">
	<stop  offset="0" style="stop-color:#FA1E00"/>
	<stop  offset="1" style="stop-color:#FA9300"/>
</linearGradient>
<path style="fill:url(#SVGID_13_);" d="M42.24,29.78H37.2c-0.464,0-0.84,0.376-0.84,0.84v5.04c0,0.464,0.376,0.84,0.84,0.84h5.04
	c0.464,0,0.84-0.376,0.84-0.84v-5.04C43.08,30.156,42.704,29.78,42.24,29.78z M41.4,34.82h-3.36v-3.36h3.36V34.82z"/>
<linearGradient id="SVGID_14_" gradientUnits="userSpaceOnUse" x1="56.1" y1="4.677" x2="56.1" y2="75.9392" gradientTransform="matrix(1 0 0 -1 0 79.8898)">
	<stop  offset="0" style="stop-color:#FA1E00"/>
	<stop  offset="1" style="stop-color:#FA9300"/>
</linearGradient>
<path style="fill:url(#SVGID_14_);" d="M44.48,43.78h23.24v1.68H44.48V43.78z"/>
<linearGradient id="SVGID_15_" gradientUnits="userSpaceOnUse" x1="57.64" y1="4.677" x2="57.64" y2="75.9392" gradientTransform="matrix(1 0 0 -1 0 79.8898)">
	<stop  offset="0" style="stop-color:#FA1E00"/>
	<stop  offset="1" style="stop-color:#FA9300"/>
</linearGradient>
<path style="fill:url(#SVGID_15_);" d="M47.56,40.42h20.16v1.68H47.56V40.42z"/>
<linearGradient id="SVGID_16_" gradientUnits="userSpaceOnUse" x1="45.32" y1="4.677" x2="45.32" y2="75.9392" gradientTransform="matrix(1 0 0 -1 0 79.8898)">
	<stop  offset="0" style="stop-color:#FA1E00"/>
	<stop  offset="1" style="stop-color:#FA9300"/>
</linearGradient>
<path style="fill:url(#SVGID_16_);" d="M44.48,40.42h1.68v1.68h-1.68V40.42z"/>
<linearGradient id="SVGID_17_" gradientUnits="userSpaceOnUse" x1="39.72" y1="4.677" x2="39.72" y2="75.9392" gradientTransform="matrix(1 0 0 -1 0 79.8898)">
	<stop  offset="0" style="stop-color:#FA1E00"/>
	<stop  offset="1" style="stop-color:#FA9300"/>
</linearGradient>
<path style="fill:url(#SVGID_17_);" d="M42.24,39.58H37.2c-0.464,0-0.84,0.376-0.84,0.84v5.04c0,0.464,0.376,0.84,0.84,0.84h5.04
	c0.464,0,0.84-0.376,0.84-0.84v-5.04C43.08,39.956,42.704,39.58,42.24,39.58z M41.4,44.62h-3.36v-3.36h3.36V44.62z"/>
<linearGradient id="SVGID_18_" gradientUnits="userSpaceOnUse" x1="22.22" y1="4.677" x2="22.22" y2="75.9392" gradientTransform="matrix(1 0 0 -1 0 79.8898)">
	<stop  offset="0" style="stop-color:#FA1E00"/>
	<stop  offset="1" style="stop-color:#FA9300"/>
</linearGradient>
<path style="fill:url(#SVGID_18_);" d="M31.74,30.48V28.8c0-0.308-0.252-0.56-0.56-0.56h-1.078l-0.742-2.282
	c-0.252-0.644-0.868-1.078-1.568-1.078H16.648c-0.7,0-1.316,0.434-1.568,1.078l-0.742,2.282H13.26c-0.308,0-0.56,0.252-0.56,0.56
	v1.68c0,0.308,0.252,0.56,0.56,0.56h0.168L12.7,33.28v7.28c0,0.616,0.518,1.12,1.134,1.12h1.12c0.616,0,1.106-0.504,1.106-1.12
	v-1.12h12.32v1.12c0,0.616,0.504,1.12,1.12,1.12h1.12c0.616,0,1.12-0.504,1.12-1.12v-7.28l-0.728-2.24h0.168
	C31.488,31.04,31.74,30.788,31.74,30.48z M16.648,26.56h11.13L29.5,31.6H14.94L16.648,26.56z M30.06,37.76H14.38v-4.48h15.68V37.76z
	 M18.3,36.64h-2.24c-0.308,0-0.56-0.252-0.56-0.56v-1.12c0-0.308,0.252-0.56,0.56-0.56h2.24c0.308,0,0.56,0.252,0.56,0.56v1.12
	C18.86,36.388,18.608,36.64,18.3,36.64z M28.38,36.64h-2.24c-0.308,0-0.56-0.252-0.56-0.56v-1.12c0-0.308,0.252-0.56,0.56-0.56h2.24
	c0.308,0,0.56,0.252,0.56,0.56v1.12C28.94,36.388,28.688,36.64,28.38,36.64z"/>
</svg>
