<?xml version="1.0" encoding="iso-8859-1"?>
<!-- Generator: Adobe Illustrator 25.2.0, SVG Export Plug-In . SVG Version: 6.00 Build 0)  -->
<svg version="1.1" id="Capa_1" xmlns="http://www.w3.org/2000/svg" xmlns:xlink="http://www.w3.org/1999/xlink" x="0px" y="0px"
	 viewBox="0 0 80 80" style="enable-background:new 0 0 80 80;" xml:space="preserve">
<linearGradient id="SVGID_1_" gradientUnits="userSpaceOnUse" x1="47.0215" y1="1.7807" x2="47.0215" y2="78.9043" gradientTransform="matrix(1 0 0 -1 0 79.8898)">
	<stop  offset="0" style="stop-color:#FA1E00"/>
	<stop  offset="1" style="stop-color:#FA9300"/>
</linearGradient>
<path style="fill:url(#SVGID_1_);" d="M41.981,49.684c1.262-0.098,2.412-0.742,3.159-1.768l11.349-15.69
	c0.348-0.481,0.296-1.145-0.126-1.567c-0.422-0.421-1.086-0.473-1.567-0.126L39.103,41.885c-1.023,0.744-1.667,1.895-1.765,3.156
	c-0.098,1.262,0.359,2.497,1.252,3.39c0.813,0.815,1.91,1.265,3.051,1.265C41.754,49.697,41.867,49.692,41.981,49.684z
	 M39.755,45.23c0.042-0.554,0.326-1.059,0.772-1.384l9.572-6.925l-6.922,9.57c-0.327,0.45-0.833,0.732-1.387,0.776
	c-0.551,0.036-1.093-0.155-1.487-0.549C39.913,46.326,39.711,45.783,39.755,45.23z"/>
<linearGradient id="SVGID_2_" gradientUnits="userSpaceOnUse" x1="53.3335" y1="1.7807" x2="53.3335" y2="78.9043" gradientTransform="matrix(1 0 0 -1 0 79.8898)">
	<stop  offset="0" style="stop-color:#FA1E00"/>
	<stop  offset="1" style="stop-color:#FA9300"/>
</linearGradient>
<path style="fill:url(#SVGID_2_);" d="M69.132,27.35c-0.012-0.025-0.012-0.052-0.025-0.078c-0.015-0.024-0.038-0.037-0.053-0.061
	c-1.225-2.102-2.675-4.057-4.321-5.829l2.604-2.602l1.714,1.714l5.142-5.143L69.05,10.21l-5.143,5.142l1.715,1.715l-2.604,2.602
	c-1.772-1.646-3.726-3.097-5.829-4.322c-0.023-0.016-0.036-0.039-0.061-0.053c-0.026-0.014-0.052-0.013-0.078-0.027
	c-3.749-2.16-7.961-3.599-12.452-4.126V9.697h1.818c1.672,0,3.03-1.359,3.03-3.03c0-1.672-1.36-3.03-3.032-3.03H35.507
	c-1.672,0-3.03,1.359-3.03,3.03c0,1.672,1.359,3.03,3.03,3.03h1.818v1.401c-1.309,0.139-2.616,0.353-3.908,0.649
	c-0.652,0.149-1.061,0.8-0.91,1.452c0.149,0.652,0.8,1.062,1.452,0.91c1.115-0.256,2.241-0.449,3.37-0.578l1.301-0.101
	c0.398-0.03,0.764-0.052,1.12-0.069v2.396c0,0.67,0.542,1.212,1.212,1.212s1.212-0.542,1.212-1.212V13.37
	c4.559,0.21,8.855,1.434,12.674,3.448l-1.195,2.069c-0.334,0.581-0.136,1.321,0.444,1.656c0.19,0.11,0.399,0.163,0.605,0.163
	c0.419,0,0.827-0.217,1.051-0.606l1.192-2.064c3.793,2.406,7.015,5.628,9.421,9.421l-2.064,1.192
	c-0.578,0.334-0.777,1.075-0.441,1.656c0.225,0.389,0.632,0.606,1.051,0.606c0.206,0,0.414-0.052,0.605-0.162l2.069-1.195
	c2.043,3.874,3.27,8.24,3.453,12.872h-2.394c-0.67,0-1.212,0.542-1.212,1.212s0.542,1.212,1.212,1.212h2.394
	c-0.183,4.632-1.411,8.998-3.453,12.871l-2.069-1.195c-0.579-0.335-1.321-0.138-1.656,0.444c-0.335,0.581-0.136,1.321,0.444,1.656
	l2.064,1.192c-2.406,3.793-5.628,7.014-9.421,9.421l-1.192-2.064c-0.336-0.582-1.079-0.779-1.656-0.444
	c-0.581,0.334-0.779,1.076-0.444,1.656l1.195,2.069c-3.819,2.015-8.115,3.239-12.674,3.448v-2.385c0-0.67-0.542-1.212-1.212-1.212
	s-1.212,0.542-1.212,1.212v2.395c-1.936-0.067-3.878-0.309-5.789-0.748c-0.652-0.156-1.303,0.258-1.452,0.91
	c-0.15,0.652,0.258,1.303,0.91,1.452c2.419,0.557,4.891,0.839,7.343,0.839c0.059,0,0.116-0.004,0.176-0.005
	c0.008,0,0.014,0.005,0.022,0.005c0.01,0,0.018-0.006,0.028-0.006c5.827-0.04,11.293-1.613,16.023-4.331
	c0.038-0.017,0.078-0.026,0.114-0.047c0.024-0.015,0.038-0.038,0.061-0.053c4.896-2.853,8.987-6.939,11.846-11.832
	c0.023-0.033,0.052-0.058,0.073-0.095c0.015-0.025,0.013-0.052,0.025-0.078c2.769-4.8,4.36-10.359,4.36-16.286
	C73.491,37.709,71.899,32.15,69.132,27.35z M69.049,13.638l1.714,1.714l-1.714,1.715l-1.715-1.715L69.049,13.638z M39.749,10.934
	V7.273h-4.242c-0.333,0-0.606-0.273-0.606-0.606c0-0.333,0.273-0.606,0.606-0.606h10.909c0.333,0,0.606,0.273,0.606,0.606
	c0,0.333-0.273,0.606-0.606,0.606h-4.242v3.662c-0.422-0.017-0.824-0.025-1.212-0.025c-0.034,0-0.073,0.002-0.107,0.002
	c-0.03,0-0.061-0.002-0.091-0.002c-0.199,0-0.397,0.013-0.596,0.017C40.027,10.93,39.895,10.928,39.749,10.934z"/>
<linearGradient id="SVGID_3_" gradientUnits="userSpaceOnUse" x1="27.0218" y1="1.7807" x2="27.0218" y2="78.9043" gradientTransform="matrix(1 0 0 -1 0 79.8898)">
	<stop  offset="0" style="stop-color:#FA1E00"/>
	<stop  offset="1" style="stop-color:#FA9300"/>
</linearGradient>
<path style="fill:url(#SVGID_3_);" d="M30.052,20.606h-6.061c-0.67,0-1.212,0.542-1.212,1.212c0,0.67,0.542,1.212,1.212,1.212h6.061
	c0.67,0,1.212-0.542,1.212-1.212C31.264,21.148,30.722,20.606,30.052,20.606z"/>
<linearGradient id="SVGID_4_" gradientUnits="userSpaceOnUse" x1="23.9915" y1="1.7807" x2="23.9915" y2="78.9043" gradientTransform="matrix(1 0 0 -1 0 79.8898)">
	<stop  offset="0" style="stop-color:#FA1E00"/>
	<stop  offset="1" style="stop-color:#FA9300"/>
</linearGradient>
<path style="fill:url(#SVGID_4_);" d="M30.052,29.091H17.931c-0.67,0-1.212,0.542-1.212,1.212c0,0.67,0.542,1.212,1.212,1.212
	h12.121c0.67,0,1.212-0.542,1.212-1.212C31.264,29.633,30.722,29.091,30.052,29.091z"/>
<linearGradient id="SVGID_5_" gradientUnits="userSpaceOnUse" x1="20.9612" y1="1.7807" x2="20.9612" y2="78.9043" gradientTransform="matrix(1 0 0 -1 0 79.8898)">
	<stop  offset="0" style="stop-color:#FA1E00"/>
	<stop  offset="1" style="stop-color:#FA9300"/>
</linearGradient>
<path style="fill:url(#SVGID_5_);" d="M30.052,37.576H11.87c-0.67,0-1.212,0.542-1.212,1.212S11.2,40,11.87,40h18.182
	c0.67,0,1.212-0.542,1.212-1.212S30.722,37.576,30.052,37.576z"/>
<linearGradient id="SVGID_6_" gradientUnits="userSpaceOnUse" x1="18.5369" y1="1.7807" x2="18.5369" y2="78.9043" gradientTransform="matrix(1 0 0 -1 0 79.8898)">
	<stop  offset="0" style="stop-color:#FA1E00"/>
	<stop  offset="1" style="stop-color:#FA9300"/>
</linearGradient>
<path style="fill:url(#SVGID_6_);" d="M30.052,46.061H7.022c-0.67,0-1.212,0.542-1.212,1.212s0.542,1.212,1.212,1.212h23.03
	c0.67,0,1.212-0.542,1.212-1.212S30.722,46.061,30.052,46.061z"/>
<linearGradient id="SVGID_7_" gradientUnits="userSpaceOnUse" x1="22.1733" y1="1.7807" x2="22.1733" y2="78.9043" gradientTransform="matrix(1 0 0 -1 0 79.8898)">
	<stop  offset="0" style="stop-color:#FA1E00"/>
	<stop  offset="1" style="stop-color:#FA9300"/>
</linearGradient>
<path style="fill:url(#SVGID_7_);" d="M30.052,54.545H14.295c-0.67,0-1.212,0.542-1.212,1.212s0.542,1.212,1.212,1.212h15.758
	c0.67,0,1.212-0.542,1.212-1.212S30.722,54.545,30.052,54.545z"/>
<linearGradient id="SVGID_8_" gradientUnits="userSpaceOnUse" x1="25.8097" y1="1.7807" x2="25.8097" y2="78.9043" gradientTransform="matrix(1 0 0 -1 0 79.8898)">
	<stop  offset="0" style="stop-color:#FA1E00"/>
	<stop  offset="1" style="stop-color:#FA9300"/>
</linearGradient>
<path style="fill:url(#SVGID_8_);" d="M30.052,63.03h-8.485c-0.67,0-1.212,0.542-1.212,1.212c0,0.67,0.542,1.212,1.212,1.212h8.485
	c0.67,0,1.212-0.542,1.212-1.212C31.264,63.572,30.722,63.03,30.052,63.03z"/>
</svg>
