<svg width="48" height="48" viewBox="0 0 48 48" fill="none" xmlns="http://www.w3.org/2000/svg">
<path fill-rule="evenodd" clip-rule="evenodd" d="M38.7309 24.4981C38.6936 26.4854 39.1137 27.5361 40.741 27.5361C42.3627 27.5361 42.5949 25.7456 42.5949 24.3839C42.5949 23.0239 42.2865 21.6947 40.5845 21.6947C39.5414 21.6947 38.7679 22.5167 38.7309 24.4981ZM35.4446 32.7937V19.3605H38.7683C38.7683 19.3605 38.7679 19.5556 38.7679 19.9041C38.7683 20.7206 39.1954 20.258 39.2331 20.1379C39.2718 20.0238 40.0824 19.0872 41.747 19.0872C43.4113 19.0872 46 20.258 46 24.3839C46.0004 27.5737 44.4548 29.9149 41.784 29.9149C40.3149 29.9149 39.465 29.3323 39.2718 29.0984C39.077 28.8641 38.8067 28.8211 38.8067 29.0984V32.7941L35.4446 32.7937ZM31.5373 23.0615C31.5373 22.0873 30.9964 21.1511 29.7594 21.1511C28.56 21.1511 28.1377 22.0051 28.1377 23.0615H31.5373ZM29.5272 18.973C32.3538 18.973 34.8235 20.0629 34.8235 25.0862H28.1381C28.1381 26.6817 28.7911 27.3398 29.9532 27.3398C31.1156 27.3398 31.5 26.4087 31.5 26.4087H34.7862C34.7862 27.851 32.8131 29.7952 29.8398 29.7576C26.4347 29.7576 24.7702 27.2256 24.7702 24.6182C24.7702 22.0051 26.2409 18.973 29.5272 18.973ZM20.7923 23.0615C20.7923 22.0873 20.2527 21.1511 19.0086 21.1511C17.8147 21.1511 17.3872 22.0051 17.3872 23.0615H20.7923ZM18.7819 18.973C21.603 18.973 24.0782 20.0629 24.0782 25.0862H17.3872C17.3872 26.6817 18.0469 27.3398 19.204 27.3398C20.3664 27.3398 20.7547 26.4087 20.7547 26.4087H24.041C24.041 27.851 22.0678 29.7952 19.0902 29.7576C15.6855 29.7576 14.0265 27.2256 14.0265 24.6182C14.0265 22.0051 15.4956 18.973 18.7819 18.973ZM9.61542 15H13.2158C13.2158 15 13.2154 22.8651 13.2154 24.4985C13.2158 26.137 12.5181 29.561 7.52884 29.561C2.54126 29.561 2 26.3712 2 24.5806V22.8276H5.48116V24.5415C5.48116 25.5923 6.1785 26.5664 7.49158 26.5664C8.80509 26.5664 9.61542 25.8264 9.61542 24.5806V15Z" fill="#757575"/>
</svg>
