<svg class="w-[122px] h-6 md:w-[152px] md:h-[30px] cursor-pointer" width="152" height="30" viewBox="0 0 152 30" fill="none" xmlns="http://www.w3.org/2000/svg"><path fill-rule="evenodd" clip-rule="evenodd" d="M0 7.26979C1.0899 6.97323 2.49523 6.69712 4.21641 6.44067C5.93759 6.18462 7.74451 6.0564 9.63757 6.0564C11.5586 6.0564 13.1582 6.29278 14.4349 6.76398C15.7105 7.23636 16.7217 7.90344 17.4678 8.76599C18.2136 9.62933 18.7438 10.6535 19.0596 11.8398C19.375 13.0261 19.5332 14.3472 19.5332 15.8029V27.8142H13.1224V16.531C13.1224 14.5895 12.8494 13.2149 12.3051 12.4058C11.7595 11.5967 10.7412 11.1924 9.25054 11.1924C8.79114 11.1924 8.30381 11.2125 7.78738 11.253C7.27095 11.2935 6.81194 11.3411 6.41075 11.395V27.8142H0V7.26979Z" fill="#FA9300"/><path fill-rule="evenodd" clip-rule="evenodd" d="M36.3121 15.0343C36.283 14.5226 36.1898 14.0235 36.0329 13.5381C35.8748 13.0528 35.6305 12.6217 35.3013 12.2437C34.9709 11.8665 34.5548 11.5562 34.0533 11.3139C33.551 11.0708 32.9272 10.9497 32.1819 10.9497C31.4645 10.9497 30.8481 11.0645 30.3317 11.2934C29.8153 11.5228 29.3854 11.8264 29.0412 12.2036C28.697 12.5812 28.4312 13.0189 28.2451 13.5177C28.0583 14.0172 27.9226 14.5226 27.8364 15.0343H36.3121ZM21.2534 17.3396C21.2534 15.4524 21.5618 13.8009 22.1785 12.3853C22.7952 10.9701 23.6051 9.79056 24.6096 8.84698C25.613 7.90341 26.7674 7.18874 28.0732 6.70338C29.3779 6.21802 30.7187 5.97534 32.0957 5.97534C35.3076 5.97534 37.8461 6.89925 39.7112 8.7459C41.5752 10.5929 42.5077 13.3092 42.5077 16.8947C42.5077 17.2456 42.4928 17.6295 42.4649 18.0472C42.4358 18.4657 42.4071 18.8362 42.3787 19.1595H27.8364C27.9796 20.4 28.596 21.3837 29.6866 22.1118C30.7761 22.8394 32.2389 23.2036 34.0749 23.2036C35.251 23.2036 36.405 23.1025 37.5385 22.9004C38.6709 22.6982 39.5964 22.4492 40.3134 22.1523L41.174 27.046C40.8294 27.2072 40.3704 27.3693 39.797 27.531C39.2231 27.6926 38.5851 27.8342 37.8827 27.9553C37.1794 28.0769 36.4266 28.178 35.6238 28.259C34.8203 28.3396 34.0171 28.3801 33.2143 28.3801C31.1773 28.3801 29.4066 28.0969 27.901 27.531C26.3949 26.965 25.1473 26.1901 24.1577 25.2056C23.1681 24.2215 22.4369 23.0557 21.9638 21.707C21.4902 20.3595 21.2534 18.9034 21.2534 17.3396Z" fill="#FA9300"/><path fill-rule="evenodd" clip-rule="evenodd" d="M80.8763 23.6082C81.5072 23.6082 82.1097 23.5948 82.6836 23.5673C83.257 23.541 83.716 23.5008 84.0606 23.4466V18.8765C83.8018 18.8227 83.4148 18.7688 82.8991 18.7149C82.3823 18.661 81.9091 18.6339 81.4788 18.6339C80.8763 18.6339 80.3103 18.6677 79.7797 18.7346C79.2483 18.8026 78.7822 18.9308 78.381 19.1192C77.9791 19.3076 77.664 19.5641 77.4347 19.8874C77.2046 20.2107 77.0901 20.6154 77.0901 21.1008C77.0901 22.0448 77.4268 22.6985 78.1014 23.0623C78.7751 23.4261 79.6998 23.6082 80.8763 23.6082ZM80.3602 5.97559C82.2533 5.97559 83.8305 6.17775 85.0931 6.58209C86.3548 6.98642 87.3657 7.56657 88.1264 8.32096C88.8855 9.07614 89.4235 9.99337 89.7398 11.0711C90.0548 12.15 90.2129 13.3496 90.2129 14.6704V27.2071C89.2941 27.3967 88.0182 27.6189 86.3836 27.8746C84.7489 28.1306 82.7693 28.2588 80.4464 28.2588C78.9836 28.2588 77.6561 28.1377 76.4663 27.8946C75.2758 27.652 74.2508 27.2547 73.3902 26.7021C72.53 26.1495 71.87 25.4281 71.411 24.5384C70.952 23.6487 70.7227 22.5565 70.7227 21.2624C70.7227 20.0227 70.9878 18.9713 71.5184 18.1084C72.0489 17.2454 72.7589 16.5579 73.6482 16.0454C74.5371 15.5337 75.5554 15.1628 76.7031 14.9335C77.85 14.7046 79.0406 14.5897 80.2741 14.5897C81.1056 14.5897 81.8442 14.6236 82.4901 14.6908C83.1351 14.7585 83.6582 14.8462 84.0606 14.9536V14.3872C84.0606 13.363 83.7306 12.5409 83.0706 11.9206C82.4106 11.3004 81.2633 10.99 79.6286 10.99C78.5384 10.99 77.4626 11.0648 76.4018 11.2127C75.3406 11.3613 74.4226 11.5706 73.6482 11.8396L72.8309 6.98642C73.2033 6.87905 73.6698 6.7642 74.2291 6.64266C74.7884 6.52152 75.3973 6.41414 76.0581 6.31935C76.7173 6.22535 77.4131 6.14432 78.1443 6.07667C78.8758 6.0098 79.6137 5.97559 80.3602 5.97559Z" fill="white"/><path fill-rule="evenodd" clip-rule="evenodd" d="M112.327 27.0859C111.237 27.3832 109.831 27.6593 108.11 27.915C106.389 28.171 104.583 28.2993 102.689 28.2993C100.767 28.2993 99.1677 28.057 97.8918 27.5712C96.6155 27.0859 95.6042 26.4058 94.8585 25.5291C94.1124 24.6532 93.5822 23.6081 93.2671 22.3947C92.9509 21.1813 92.7939 19.8472 92.7939 18.3911V6.54187H99.2043V17.6631C99.2043 19.6045 99.4765 21.0063 100.022 21.8688C100.566 22.7322 101.585 23.1633 103.076 23.1633C103.535 23.1633 104.023 23.1432 104.539 23.1027C105.056 23.0626 105.514 23.0154 105.916 22.9611V6.54187H112.327V27.0859Z" fill="white"/><path fill-rule="evenodd" clip-rule="evenodd" d="M115.123 1.24376L121.533 0.273438V6.54181H129.235V11.5563H121.533V19.038C121.533 20.3061 121.77 21.3169 122.244 22.0713C122.717 22.8265 123.67 23.2037 125.105 23.2037C125.793 23.2037 126.503 23.1431 127.234 23.0216C127.966 22.9005 128.633 22.7321 129.235 22.5162L130.139 27.2073C129.364 27.5047 128.504 27.7603 127.557 27.9759C126.61 28.1914 125.449 28.2992 124.072 28.2992C122.322 28.2992 120.873 28.077 119.726 27.6321C118.579 27.1873 117.662 26.5674 116.973 25.7717C116.285 24.9768 115.804 24.0128 115.532 22.8804C115.259 21.7476 115.123 20.4941 115.123 19.1191V1.24376Z" fill="white"/><path fill-rule="evenodd" clip-rule="evenodd" d="M145.197 17.1373C145.197 15.2773 144.802 13.8149 144.014 12.7498C143.224 11.6847 142.099 11.1521 140.636 11.1521C139.174 11.1521 138.04 11.6847 137.238 12.7498C136.434 13.8149 136.032 15.2773 136.032 17.1373C136.032 18.9977 136.434 20.4738 137.238 21.5661C138.04 22.6575 139.174 23.2039 140.636 23.2039C142.099 23.2039 143.224 22.6575 144.014 21.5661C144.802 20.4738 145.197 18.9977 145.197 17.1373ZM151.737 17.1373C151.737 18.8097 151.479 20.3393 150.962 21.7277C150.446 23.1166 149.699 24.3028 148.725 25.2865C147.749 26.271 146.581 27.0325 145.218 27.5713C143.856 28.1102 142.328 28.3804 140.636 28.3804C138.973 28.3804 137.459 28.1102 136.097 27.5713C134.734 27.0325 133.566 26.271 132.591 25.2865C131.615 24.3028 130.855 23.1166 130.31 21.7277C129.765 20.3393 129.493 18.8097 129.493 17.1373C129.493 15.4661 129.773 13.9423 130.332 12.5677C130.891 11.1926 131.666 10.0197 132.655 9.0494C133.645 8.07868 134.82 7.32389 136.183 6.78426C137.545 6.2454 139.03 5.97559 140.636 5.97559C142.272 5.97559 143.77 6.2454 145.132 6.78426C146.494 7.32389 147.664 8.07868 148.639 9.0494C149.614 10.0197 150.374 11.1926 150.919 12.5677C151.464 13.9423 151.737 15.4661 151.737 17.1373Z" fill="white"/><path fill-rule="evenodd" clip-rule="evenodd" d="M56.4624 25.3732C51.8078 25.3732 48.0343 21.5996 48.0343 16.9451C48.0343 12.2909 51.8078 8.51734 56.4624 8.51734C61.117 8.51734 64.8905 12.2909 64.8905 16.9451C64.8905 21.5996 61.117 25.3732 56.4624 25.3732ZM56.4624 3.61694C49.1014 3.61694 43.1343 9.58442 43.1343 16.9451C43.1343 24.3061 49.1014 30.2735 56.4624 30.2735C63.8234 30.2735 69.7905 24.3061 69.7905 16.9451C69.7905 9.58442 63.8234 3.61694 56.4624 3.61694Z" fill="#FA9300"/><path fill-rule="evenodd" clip-rule="evenodd" d="M56.4064 10.4064C55.5812 10.4064 54.9126 11.0762 54.9126 11.901C54.9126 12.7254 55.5812 13.3948 56.4064 13.3948C57.2308 13.3948 57.9003 12.7254 57.9003 11.901C57.9003 11.0762 57.2308 10.4064 56.4064 10.4064Z" fill="#FA9300"/><path fill-rule="evenodd" clip-rule="evenodd" d="M52.9692 20.056C52.144 20.056 51.4746 20.7227 51.4746 21.5474C51.4746 22.3722 52.144 23.0421 52.9692 23.0421C53.794 23.0421 54.4631 22.3722 54.4631 21.5474C54.4631 20.7227 53.794 20.056 52.9692 20.056Z" fill="#FA9300"/><path fill-rule="evenodd" clip-rule="evenodd" d="M61.7829 14.1393C60.9581 14.1393 60.2891 14.806 60.2891 15.6308C60.2891 16.4552 60.9581 17.125 61.7829 17.125C62.6077 17.125 63.2771 16.4552 63.2771 15.6308C63.2771 14.806 62.6077 14.1393 61.7829 14.1393Z" fill="#FA9300"/><path fill-rule="evenodd" clip-rule="evenodd" d="M51.1418 14.1393C50.3174 14.1393 49.6479 14.806 49.6479 15.6339C49.6479 16.4583 50.3174 17.125 51.1418 17.125C51.9662 17.125 52.6356 16.4583 52.6356 15.6339C52.6356 14.806 51.9662 14.1393 51.1418 14.1393Z" fill="#FA9300"/><path fill-rule="evenodd" clip-rule="evenodd" d="M59.5057 20.0533C58.6805 20.0533 58.0122 20.7228 58.0122 21.5476C58.0122 22.3724 58.6805 23.0422 59.5057 23.0422C60.3304 23.0422 60.9991 22.3724 60.9991 21.5476C60.9991 20.7228 60.3304 20.0533 59.5057 20.0533Z" fill="#FA9300"/></svg>