<svg width="389" height="39" fill="none" xmlns="http://www.w3.org/2000/svg"><path fill-rule="evenodd" clip-rule="evenodd" d="M0 9.996c1.09-.296 2.495-.572 4.216-.829a36.831 36.831 0 015.422-.384c1.92 0 3.52.236 4.797.708 1.275.472 2.287 1.139 3.033 2.002.746.863 1.276 1.887 1.592 3.073.315 1.187.473 2.508.473 3.963v12.012h-6.41V19.257c0-1.94-.274-3.316-.818-4.125-.546-.809-1.564-1.213-3.054-1.213-.46 0-.947.02-1.464.06-.516.041-.975.089-1.376.143V30.54H0V9.996z" fill="#000"/><mask id="a" maskUnits="userSpaceOnUse" x="43" y="6" width="27" height="27"><path d="M43.134 6.344h26.657V33H43.134V6.344z" fill="#fff"/></mask><g mask="url(#a)"><path fill-rule="evenodd" clip-rule="evenodd" d="M56.462 28.1a8.428 8.428 0 110-16.857 8.428 8.428 0 010 16.857zm0-21.756c-7.36 0-13.328 5.967-13.328 13.328 0 7.36 5.967 13.328 13.328 13.328s13.329-5.967 13.329-13.328S63.824 6.344 56.462 6.344z" fill="#000"/></g><path fill-rule="evenodd" clip-rule="evenodd" d="M36.312 17.761a5.942 5.942 0 00-.28-1.496 3.691 3.691 0 00-.73-1.295 3.875 3.875 0 00-1.249-.93c-.502-.243-1.126-.364-1.871-.364-.718 0-1.334.115-1.85.344-.517.23-.947.533-1.29.91a4.01 4.01 0 00-.797 1.314 8.2 8.2 0 00-.409 1.517h8.476zm-15.059 2.305c0-1.887.309-3.538.925-4.954.617-1.415 1.427-2.595 2.431-3.538a10.18 10.18 0 013.464-2.144 11.448 11.448 0 014.023-.728c3.212 0 5.75.924 7.615 2.77 1.864 1.848 2.797 4.564 2.797 8.15 0 .35-.015.734-.043 1.152-.03.418-.058.789-.086 1.112H27.836c.144 1.24.76 2.224 1.85 2.952 1.09.728 2.553 1.092 4.389 1.092 1.176 0 2.33-.1 3.463-.303 1.133-.202 2.058-.451 2.775-.748l.86 4.894a9.29 9.29 0 01-1.376.485c-.574.161-1.212.303-1.914.424a32.4 32.4 0 01-2.26.304c-.803.08-1.606.12-2.409.12-2.037 0-3.807-.282-5.313-.848-1.506-.566-2.754-1.341-3.743-2.326a9.124 9.124 0 01-2.194-3.498c-.474-1.348-.71-2.804-.71-4.368z" fill="#000"/><path fill-rule="evenodd" clip-rule="evenodd" d="M80.876 26.335c.631 0 1.233-.014 1.807-.041a13.137 13.137 0 001.377-.12v-4.57a12.578 12.578 0 00-1.161-.162 13.615 13.615 0 00-3.12.02 4.678 4.678 0 00-1.398.384 2.357 2.357 0 00-.947.768c-.23.323-.344.728-.344 1.213 0 .944.337 1.598 1.011 1.962.674.364 1.599.546 2.775.546zM80.36 8.702c1.893 0 3.47.202 4.733.607 1.262.404 2.272.984 3.033 1.739.76.755 1.297 1.672 1.614 2.75.315 1.079.473 2.278.473 3.599v12.537c-.92.19-2.195.412-3.83.667-1.634.256-3.614.384-5.937.384-1.463 0-2.79-.12-3.98-.364-1.19-.242-2.215-.64-3.076-1.192a5.572 5.572 0 01-1.98-2.164c-.458-.89-.688-1.982-.688-3.276 0-1.24.266-2.291.796-3.154a5.939 5.939 0 012.13-2.063c.889-.512 1.907-.883 3.055-1.112a18.2 18.2 0 013.57-.344c.832 0 1.571.034 2.217.101.645.068 1.168.156 1.57.263v-.566c0-1.024-.33-1.847-.99-2.467-.66-.62-1.807-.93-3.442-.93-1.09 0-2.166.074-3.226.222-1.062.149-1.98.358-2.754.627l-.817-4.853c.372-.107.839-.222 1.398-.344.56-.12 1.168-.228 1.829-.323a42.61 42.61 0 012.086-.243 24.32 24.32 0 012.216-.1zM112.327 29.812c-1.09.298-2.496.574-4.217.83a36.825 36.825 0 01-5.421.384c-1.922 0-3.521-.242-4.797-.728-1.276-.486-2.288-1.166-3.033-2.042-.746-.876-1.277-1.921-1.592-3.135-.316-1.213-.473-2.547-.473-4.003V9.268h6.41V20.39c0 1.941.273 3.343.818 4.205.545.864 1.563 1.295 3.054 1.295.459 0 .947-.02 1.463-.06.517-.04.975-.088 1.377-.142V9.268h6.411v20.544zM115.123 3.97l6.41-.97v6.268h7.703v5.015h-7.703v7.482c0 1.268.237 2.279.711 3.033.473.755 1.426 1.132 2.861 1.132.688 0 1.399-.06 2.129-.182.732-.121 1.399-.29 2.002-.505l.903 4.69c-.775.298-1.635.554-2.582.77-.947.215-2.108.323-3.485.323-1.75 0-3.199-.223-4.345-.667-1.148-.445-2.065-1.065-2.754-1.86-.688-.796-1.169-1.76-1.441-2.892-.273-1.133-.409-2.386-.409-3.761V3.97z" fill="#FA9300"/><mask id="b" maskUnits="userSpaceOnUse" x="129" y="8" width="23" height="24"><path d="M129.493 8.702h22.244v22.405h-22.244V8.702z" fill="#fff"/></mask><g mask="url(#b)"><path fill-rule="evenodd" clip-rule="evenodd" d="M145.197 19.864c0-1.86-.395-3.323-1.183-4.388-.79-1.065-1.915-1.597-3.378-1.597-1.462 0-2.596.532-3.398 1.597-.804 1.065-1.206 2.528-1.206 4.388 0 1.86.402 3.336 1.206 4.429.802 1.091 1.936 1.637 3.398 1.637 1.463 0 2.588-.546 3.378-1.637.788-1.093 1.183-2.569 1.183-4.43zm6.54 0c0 1.672-.258 3.202-.775 4.59-.516 1.39-1.263 2.575-2.237 3.559-.975.984-2.144 1.746-3.506 2.285-1.363.539-2.891.809-4.583.809-1.663 0-3.177-.27-4.539-.81-1.362-.538-2.531-1.3-3.506-2.284-.976-.984-1.736-2.17-2.281-3.559-.545-1.388-.817-2.918-.817-4.59 0-1.671.28-3.195.839-4.57.559-1.375 1.334-2.548 2.323-3.518.99-.97 2.165-1.726 3.529-2.265 1.361-.54 2.846-.809 4.452-.809 1.636 0 3.134.27 4.496.809 1.362.54 2.532 1.294 3.507 2.265.975.97 1.735 2.143 2.28 3.518.545 1.375.818 2.899.818 4.57z" fill="#FA9300"/></g><path fill-rule="evenodd" clip-rule="evenodd" d="M56.406 13.133a1.495 1.495 0 10.002 2.99 1.495 1.495 0 00-.002-2.99zM52.97 22.782a1.493 1.493 0 100 2.987 1.492 1.492 0 100-2.986zM61.783 16.866a1.492 1.492 0 100 2.986 1.492 1.492 0 100-2.986zM51.142 16.866a1.493 1.493 0 10-.002 2.986 1.493 1.493 0 00.002-2.986zM59.506 22.78a1.494 1.494 0 100 2.988 1.494 1.494 0 000-2.988z" fill="#FA9300"/><path d="M224.885 3.354l-1.293 5.294h-8.204l-5.456 22.713h-6.305l5.456-22.713h-8.204l1.293-5.294h22.713zM235.272 15.276a95.967 95.967 0 00-1.597-.383c-.525-.121-1.3-.182-2.324-.182-.377 0-.795.034-1.252.1a9.95 9.95 0 00-1.132.223l-3.92 16.328h-6.022l4.85-20.127a47.911 47.911 0 013.9-1.07c1.441-.337 3.065-.506 4.87-.506.673 0 1.421.06 2.243.182.821.121 1.542.317 2.162.586l-1.778 4.85zM255.519 22.187a13.418 13.418 0 00-.323 4.628c.162 1.55.471 2.93.929 4.142l-5.375.768a25.3 25.3 0 01-.444-.93c-.136-.296-.27-.632-.404-1.01a10.803 10.803 0 01-2.506 1.536c-.916.404-1.94.606-3.072.606-1.347 0-2.499-.236-3.455-.707-.957-.471-1.738-1.105-2.344-1.9-.606-.794-1.044-1.723-1.313-2.788a13.848 13.848 0 01-.404-3.415c0-1.86.329-3.61.99-5.254a13.373 13.373 0 012.748-4.304 12.827 12.827 0 014.142-2.89c1.59-.7 3.314-1.05 5.173-1.05.243 0 .667.013 1.273.04.606.027 1.3.087 2.081.182.782.094 1.603.25 2.466.464a12.85 12.85 0 012.465.89l-2.627 10.992zm-4.203-7.436c-.35-.054-.667-.094-.95-.121-.282-.027-.626-.04-1.03-.04-.916 0-1.772.229-2.566.686a7.341 7.341 0 00-2.082 1.799 8.57 8.57 0 00-1.394 2.566 9.17 9.17 0 00-.505 3.032c0 1.293.215 2.317.646 3.07.431.756 1.226 1.133 2.385 1.133.619 0 1.178-.122 1.677-.364.498-.243 1.031-.647 1.596-1.213.054-.673.142-1.38.263-2.121.121-.741.249-1.421.384-2.041l1.576-6.386zM264.249 11.073c.457-.134.963-.289 1.515-.464a20.533 20.533 0 011.859-.485 23.26 23.26 0 012.304-.364 26.516 26.516 0 012.89-.142c3.178 0 5.361.916 6.547 2.748 1.185 1.833 1.387 4.339.606 7.518l-2.748 11.477H271.2l2.667-11.235c.162-.7.289-1.38.384-2.041.094-.66.087-1.239-.02-1.738a2.057 2.057 0 00-.748-1.212c-.391-.31-.99-.465-1.798-.465-.782 0-1.576.08-2.385.243l-3.92 16.448h-6.022l4.891-20.288zM289.184 27.077c1.374 0 2.317-.195 2.829-.586.511-.39.768-.814.768-1.273 0-.296-.048-.552-.142-.768a1.753 1.753 0 00-.465-.606 4.884 4.884 0 00-.889-.586 26.004 26.004 0 00-1.455-.707 20.47 20.47 0 01-1.899-.95 6.58 6.58 0 01-1.556-1.212 5.377 5.377 0 01-1.051-1.617c-.256-.606-.384-1.327-.384-2.162 0-2.183.801-3.906 2.405-5.173 1.602-1.266 3.94-1.9 7.012-1.9 1.455 0 2.748.162 3.88.485 1.131.324 2.047.674 2.748 1.051l-2.062 4.486c-.565-.296-1.293-.579-2.182-.849a9.048 9.048 0 00-3.738-.343c-.364.04-.701.128-1.011.263-.31.135-.559.323-.747.565-.189.243-.283.566-.283.97 0 .54.208.944.626 1.213.417.27 1.003.593 1.758.97 1.051.512 1.926.984 2.627 1.414.701.431 1.259.89 1.677 1.374.418.485.721 1.038.91 1.657.188.62.282 1.348.282 2.182 0 .863-.181 1.712-.545 2.546-.364.836-.937 1.577-1.718 2.223-.782.647-1.778 1.172-2.991 1.576-1.212.405-2.667.607-4.364.607-1.051 0-2.001-.068-2.85-.202a16.039 16.039 0 01-2.243-.506 11.934 11.934 0 01-1.636-.626 20.84 20.84 0 01-1.031-.525l2.061-4.608c.458.27 1.172.607 2.142 1.01.971.406 2.143.607 3.517.607zM318.322 0c1.212 0 2.195.095 2.95.283.754.189 1.36.39 1.819.606l-2.142 4.688c-.485-.134-.95-.249-1.394-.343a7.144 7.144 0 00-1.475-.142c-1.482 0-2.58.378-3.294 1.132-.714.754-1.206 1.697-1.475 2.829l-.243 1.05h7.113l-1.212 4.931h-7.073l-2.465 10.306c-.916 3.853-1.913 6.85-2.991 8.992-1.077 2.142-2.263 3.698-3.556 4.668l-5.375-.768c.701-.647 1.347-1.442 1.94-2.385a24.368 24.368 0 001.596-2.99c.471-1.051.875-2.122 1.213-3.213a43.15 43.15 0 00.828-3.051l4.203-17.621c.673-2.856 1.886-5.065 3.637-6.628C312.677.782 315.142 0 318.322 0zm6.385 31.361h-5.981l5.052-21.258h6.022l-5.093 21.258zm2.91-23.844c-.835 0-1.59-.249-2.263-.748-.674-.498-1.01-1.259-1.01-2.283 0-.566.114-1.097.343-1.596.229-.498.532-.93.91-1.294a4.372 4.372 0 011.313-.868 3.984 3.984 0 011.596-.324c.835 0 1.59.25 2.264.748.673.499 1.01 1.26 1.01 2.283 0 .566-.115 1.098-.343 1.597a4.25 4.25 0 01-2.223 2.162 3.978 3.978 0 01-1.597.323zM331.375 23.036c0-1.724.303-3.395.91-5.011a13.724 13.724 0 012.566-4.304c1.104-1.253 2.445-2.264 4.021-3.031 1.576-.768 3.321-1.152 5.234-1.152.943 0 1.818.135 2.627.404.808.27 1.515.66 2.122 1.172a5.297 5.297 0 011.414 1.88c.337.74.505 1.582.505 2.525 0 1.51-.337 2.789-1.01 3.84-.674 1.05-1.61 1.906-2.809 2.566-1.199.66-2.62 1.138-4.264 1.434-1.643.297-3.435.445-5.375.445.188 1.131.6 1.933 1.233 2.404.633.472 1.637.708 3.011.708.862 0 1.737-.074 2.627-.223.889-.147 1.724-.37 2.505-.666l.445 4.728c-.755.297-1.718.566-2.89.809-1.172.242-2.445.363-3.819.363-1.671 0-3.078-.236-4.223-.707-1.146-.471-2.075-1.112-2.789-1.92a7.442 7.442 0 01-1.556-2.829 11.904 11.904 0 01-.485-3.435zm11.761-8.73c-1.374 0-2.58.493-3.617 1.476-1.038.983-1.718 2.283-2.041 3.9 1.67-.054 3.017-.195 4.041-.425 1.024-.229 1.819-.505 2.385-.828.565-.324.942-.674 1.131-1.051.188-.377.283-.754.283-1.132 0-1.293-.727-1.94-2.182-1.94zM367.829 15.276a95.877 95.877 0 00-1.596-.383c-.525-.121-1.3-.182-2.324-.182-.378 0-.795.034-1.253.1a10.04 10.04 0 00-1.132.223l-3.92 16.328h-6.022l4.85-20.127a48.024 48.024 0 013.9-1.07c1.441-.337 3.065-.506 4.87-.506.673 0 1.421.06 2.243.182.822.121 1.543.317 2.162.586l-1.778 4.85zM369.203 23.036c0-1.724.304-3.395.91-5.011a13.724 13.724 0 012.566-4.304c1.104-1.253 2.445-2.264 4.021-3.031 1.576-.768 3.32-1.152 5.233-1.152.943 0 1.819.135 2.627.404.808.27 1.516.66 2.122 1.172a5.297 5.297 0 011.414 1.88c.337.74.505 1.582.505 2.525 0 1.51-.337 2.789-1.01 3.84-.674 1.05-1.61 1.906-2.809 2.566-1.199.66-2.62 1.138-4.263 1.434-1.644.297-3.435.445-5.375.445.188 1.131.599 1.933 1.232 2.404.633.472 1.637.708 3.011.708.862 0 1.738-.074 2.627-.223.889-.147 1.724-.37 2.506-.666l.444 4.728c-.754.297-1.717.566-2.889.809-1.172.242-2.445.363-3.819.363-1.671 0-3.079-.236-4.224-.707s-2.075-1.112-2.788-1.92a7.442 7.442 0 01-1.556-2.829 11.904 11.904 0 01-.485-3.435zm11.761-8.73c-1.374 0-2.58.493-3.617 1.476s-1.718 2.283-2.041 3.9c1.67-.054 3.017-.195 4.041-.425 1.024-.229 1.819-.505 2.385-.828.566-.324.942-.674 1.131-1.051.188-.377.283-.754.283-1.132 0-1.293-.727-1.94-2.182-1.94zM192.476 8.339l-12.973-6.373-13.441 7.153.711 16.873 13.47 9.836 12.287-10.545-.054-16.944zm-6.443 13.104a1.28 1.28 0 01-1.38 1.173l-8.386-.679 2.857 5.365a1.28 1.28 0 11-2.262 1.204l-3.958-7.433a1.282 1.282 0 011.234-1.88l10.722.87c.705.057 1.23.675 1.173 1.38zm-.024-4.189a1.28 1.28 0 01-1.174.574l-10.722-.869a1.281 1.281 0 01.207-2.553l8.386.679-2.857-5.365a1.281 1.281 0 012.262-1.204l3.958 7.433c.22.413.197.914-.06 1.305z" fill="#FA9300"/></svg>