<svg width="121" height="60" fill="none" xmlns="http://www.w3.org/2000/svg"><g clip-path="url(#clip0)"><path d="M13.338 26.634c0-.168.209-.32.44-.32h2.156c.231 0 .44.152.44.32V37.79c0 .169-.209.32-.44.32h-2.156c-.231 0-.44-.151-.44-.32V26.634zM20.592 22.328a.44.44 0 01.44-.44h5.308c2.757 0 4.89 1.854 4.89 4.288 0 1.784-1.46 3.175-2.55 3.684 1.229.394 3.013 1.645 3.013 3.778 0 2.596-2.225 4.473-5.052 4.473h-5.608a.44.44 0 01-.44-.441V22.328zm5.47 6.373c1.182 0 1.993-.927 1.993-2.085 0-1.16-.811-1.97-1.993-1.97h-2.48v4.055h2.48zm.324 6.675c1.159 0 2.086-.904 2.086-2.11 0-1.158-1.16-2.015-2.364-2.015h-2.526v4.125h2.804zM34.892 22.328a.44.44 0 01.44-.44h6.628c2.781 0 5.052 2.225 5.052 4.983 0 2.132-1.414 3.87-3.43 4.68l3.175 5.887c.162.302 0 .673-.394.673H43.93a.397.397 0 01-.371-.209l-3.082-6.141h-2.572v5.91c0 .232-.209.44-.441.44h-2.132a.44.44 0 01-.44-.44V22.328zm6.813 6.952c1.228 0 2.294-1.066 2.294-2.364 0-1.227-1.066-2.248-2.294-2.248h-3.777v4.612h3.777z" fill="#fff"/><path d="M30 60C13.458 60 0 46.542 0 30S13.458 0 30 0s30 13.458 30 30-13.458 30-30 30zm0-57.425C14.878 2.575 2.575 14.878 2.575 30S14.878 57.425 30 57.425 57.425 45.122 57.425 30 45.122 2.575 30 2.575z" fill="#fff"/><path d="M30 55.611C15.877 55.611 4.388 44.122 4.388 30S15.877 4.388 30 4.388C44.122 4.388 55.61 15.878 55.61 30 55.611 44.122 44.122 55.61 30 55.61zm0-48.706C17.265 6.905 6.905 17.265 6.905 30S17.265 53.095 30 53.095c12.734 0 23.094-10.36 23.094-23.095 0-12.734-10.36-23.095-23.094-23.095z" fill="#fff"/><path d="M13.04 21.888l-1.383 2.542h1.749l-.102.732v.059h3.07v-3.333H13.04z" fill="#EF7D00"/><path d="M69.987 13.428L68.6 14.77v31.802l1.47-1.42V13.427h-.082zM84.225 22.004a.714.714 0 01-.04.221.27.27 0 01-.08.117.092.092 0 01-.056.018c-.03 0-.074-.02-.131-.06a1.986 1.986 0 00-.55-.256 1.506 1.506 0 00-.45-.06c-.195 0-.369.032-.52.094a1.099 1.099 0 00-.621.621c-.055.138-.082.283-.082.431 0 .147.03.274.09.384.06.11.14.209.237.297.098.088.21.17.334.247l.384.232c.132.08.26.162.387.25.126.086.238.186.336.3a1.353 1.353 0 01.327.907 1.653 1.653 0 01-.575 1.263 2.088 2.088 0 01-.671.388 2.553 2.553 0 01-.88.145c-.176 0-.34-.016-.495-.049a2.753 2.753 0 01-.42-.118 2.243 2.243 0 01-.319-.146.902.902 0 01-.187-.133.216.216 0 01-.056-.158.577.577 0 01.02-.144c.008-.03.016-.058.025-.085a.403.403 0 01.034-.075.196.196 0 01.047-.055.097.097 0 01.06-.02c.048 0 .109.024.183.072.073.05.164.102.273.16.108.058.236.111.384.16.148.05.32.074.52.074.228 0 .433-.034.616-.1.182-.067.336-.16.463-.275a1.185 1.185 0 00.393-.89c0-.15-.03-.28-.09-.39a1.15 1.15 0 00-.235-.3 2.005 2.005 0 00-.332-.244l-.382-.229a6.926 6.926 0 01-.381-.247 1.677 1.677 0 01-.332-.301 1.469 1.469 0 01-.235-.393c-.06-.148-.09-.32-.09-.518a1.588 1.588 0 01.491-1.157c.16-.154.355-.277.585-.368.23-.091.492-.137.784-.137.141 0 .276.012.404.037.128.024.243.053.346.088.102.035.19.073.262.114.072.041.122.075.149.1a.256.256 0 01.058.081.27.27 0 01.018.107zM88.85 27.278c.01.046.012.083.005.112a.097.097 0 01-.043.066.214.214 0 01-.097.03 1.502 1.502 0 01-.278 0 .302.302 0 01-.081-.02.096.096 0 01-.043-.038.16.16 0 01-.019-.054l-.248-1.576h-2.565l-.854 1.576a.184.184 0 01-.036.055.166.166 0 01-.061.036.44.44 0 01-.1.02 1.233 1.233 0 01-.3-.002.197.197 0 01-.093-.032c-.02-.015-.028-.037-.025-.064a.34.34 0 01.04-.11l3.159-5.622a.222.222 0 01.13-.1.577.577 0 01.107-.02 1.204 1.204 0 01.379.02.13.13 0 01.063.039.117.117 0 01.025.061l.936 5.623zm-1.381-5.123h-.004l-1.73 3.178h2.236l-.502-3.178zM94.05 22.679c0 .19-.024.368-.073.537a1.795 1.795 0 01-.208.468c-.09.143-.2.27-.332.381-.13.111-.279.204-.444.277a1.07 1.07 0 01.815.722c.043.13.065.274.065.43a1.908 1.908 0 01-.264.977 1.917 1.917 0 01-.744.717c-.16.088-.335.157-.529.205a2.705 2.705 0 01-.664.073H90.16c-.087 0-.153-.023-.198-.068-.045-.046-.056-.119-.032-.22l1.052-5.333c.021-.11.067-.185.136-.226a.4.4 0 01.207-.062h1.17c.292 0 .533.026.723.078.19.052.346.126.47.224a.885.885 0 01.273.354c.06.137.09.293.09.466zm-.772 2.864c0-.283-.098-.5-.294-.652-.196-.153-.495-.23-.899-.23h-1.11l-.453 2.307h1.229c.262 0 .485-.039.669-.116a1.42 1.42 0 00.465-.31c.126-.13.223-.281.291-.453.068-.172.102-.354.102-.546zm.166-2.768a.78.78 0 00-.054-.297.55.55 0 00-.174-.226.873.873 0 00-.307-.146 1.914 1.914 0 00-.499-.053h-.916l-.416 2.12h.998c.262 0 .477-.044.643-.133.167-.088.304-.2.411-.338a1.563 1.563 0 00.314-.927zM99.04 21.693a.814.814 0 01-.013.135.75.75 0 01-.023.08.274.274 0 01-.036.073.186.186 0 01-.056.052.142.142 0 01-.075.021h-2.39l-.41 2.078h2.068c.033 0 .059.011.077.033.018.02.027.053.027.095a.35.35 0 01-.075.284.203.203 0 01-.052.048.13.13 0 01-.072.02h-2.068l-.47 2.356h2.439c.03 0 .054.012.073.032.017.022.027.055.027.101a.937.937 0 01-.014.146.616.616 0 01-.023.08.287.287 0 01-.036.07.16.16 0 01-.131.07H95.07a.263.263 0 01-.082-.014.151.151 0 01-.07-.048.21.21 0 01-.042-.089.303.303 0 01.004-.137l1.057-5.333c.021-.11.065-.185.131-.227a.347.347 0 01.18-.061h2.693c.067-.002.1.044.1.135zM105.473 27.374a.154.154 0 01-.028.05.122.122 0 01-.054.037.486.486 0 01-.09.023.822.822 0 01-.26 0 .344.344 0 01-.082-.023c-.02-.01-.032-.021-.038-.037a.094.094 0 01-.005-.05l1.057-5.33h-.009l-3.365 5.362a.205.205 0 01-.088.062.507.507 0 01-.183.025.428.428 0 01-.176-.025c-.033-.017-.051-.038-.054-.062l-1.125-5.361h-.009l-1.053 5.33a.163.163 0 01-.027.05.13.13 0 01-.055.036.494.494 0 01-.09.023.822.822 0 01-.26 0 .29.29 0 01-.079-.023.072.072 0 01-.036-.037.073.073 0 010-.05l1.089-5.53a.332.332 0 01.223-.274.307.307 0 01.088-.013h.294c.075 0 .138.008.187.025a.331.331 0 01.208.192c.02.047.036.1.047.161l.999 4.686h.022l2.941-4.686c.036-.057.073-.11.111-.155a.597.597 0 01.278-.197.572.572 0 01.18-.027h.335c.027 0 .054.005.081.014a.17.17 0 01.073.048.187.187 0 01.043.088.423.423 0 01-.002.137l-1.088 5.531zM112.474 23.538a5.512 5.512 0 01-.259 1.615 4.825 4.825 0 01-.38.874 3.143 3.143 0 01-.591.765 2.795 2.795 0 01-.845.543 2.881 2.881 0 01-1.131.209c-.332 0-.621-.045-.867-.136a1.571 1.571 0 01-.617-.395 1.648 1.648 0 01-.368-.634 2.736 2.736 0 01-.122-.854c0-.25.021-.522.063-.818.042-.295.113-.593.212-.893.099-.3.23-.59.393-.87s.363-.529.601-.747c.237-.217.517-.392.838-.523.32-.13.689-.196 1.108-.196.328 0 .615.047.861.141.246.094.45.23.614.407.164.176.287.392.368.646.082.255.122.543.122.866zm-.601.023c0-.229-.025-.44-.077-.633a1.316 1.316 0 00-.248-.5 1.147 1.147 0 00-.454-.329 1.778 1.778 0 00-.689-.119c-.341 0-.639.062-.895.188a2.248 2.248 0 00-.664.488c-.186.2-.34.429-.463.683-.122.254-.219.51-.291.77a5.184 5.184 0 00-.153.748c-.03.241-.045.446-.045.617 0 .232.025.442.077.633.05.19.135.354.252.49.118.137.271.244.459.32.188.076.417.114.688.114.338 0 .634-.061.888-.183s.474-.282.659-.48c.186-.198.34-.423.463-.674.124-.25.222-.504.294-.76.073-.256.123-.504.154-.745.03-.238.045-.448.045-.628zM116.783 22.004a.546.546 0 01-.018.143 1.151 1.151 0 01-.022.078.262.262 0 01-.08.117.089.089 0 01-.056.018c-.03 0-.074-.02-.131-.06a2.105 2.105 0 00-.55-.256 1.5 1.5 0 00-.449-.06c-.196 0-.37.032-.522.094a1.091 1.091 0 00-.621.621 1.179 1.179 0 00-.081.431c0 .147.03.274.09.384.06.11.14.209.237.297.098.088.209.17.334.247l.384.232c.131.08.26.162.387.25.126.086.238.186.336.3a1.357 1.357 0 01.328.907 1.656 1.656 0 01-.576 1.263 2.096 2.096 0 01-.671.388 2.559 2.559 0 01-.881.145 2.711 2.711 0 01-.914-.167 2.265 2.265 0 01-.319-.146.919.919 0 01-.187-.133.217.217 0 01-.056-.158.547.547 0 01.02-.144c.008-.03.016-.058.025-.085a.352.352 0 01.034-.075.217.217 0 01.047-.055.099.099 0 01.059-.02c.049 0 .11.024.183.072.074.05.165.102.274.16.108.058.236.111.384.16.148.05.321.074.519.074.229 0 .434-.034.617-.1.182-.067.336-.16.463-.275a1.184 1.184 0 00.393-.89c0-.15-.031-.28-.091-.39a1.15 1.15 0 00-.234-.3 2.066 2.066 0 00-.332-.244l-.382-.229a6.802 6.802 0 01-.381-.247 1.66 1.66 0 01-.332-.301 1.353 1.353 0 01-.326-.911 1.586 1.586 0 01.492-1.157c.16-.154.355-.277.585-.368.23-.091.492-.137.784-.137.141 0 .276.012.404.037.128.024.243.053.345.088.103.035.19.073.263.114.072.041.122.075.148.1a.253.253 0 01.059.081.277.277 0 01.018.107zM85.328 33.484c0 .086-.015.2-.043.343a1.391 1.391 0 01-.109.345c-.043.086-.092.13-.147.13-.039 0-.086-.025-.14-.075a1.592 1.592 0 00-.546-.324 1.47 1.47 0 00-.506-.076 1.36 1.36 0 00-.61.136c-.183.09-.347.208-.491.356a2.456 2.456 0 00-.38.509 3.54 3.54 0 00-.269.598 3.95 3.95 0 00-.158.62 3.446 3.446 0 00-.052.573c0 .212.026.4.079.561.053.162.129.296.228.402.1.107.222.187.366.24.145.054.307.08.488.08a1.935 1.935 0 00.938-.219 3.07 3.07 0 00.266-.151.365.365 0 01.192-.068c.039 0 .065.014.079.043a.29.29 0 01.02.121.766.766 0 01-.008.096l-.023.143-.031.174c-.013.062-.026.12-.041.174a1.119 1.119 0 01-.052.145.38.38 0 01-.08.117.946.946 0 01-.194.13 2.064 2.064 0 01-.352.149 3.471 3.471 0 01-.47.116 3.066 3.066 0 01-.56.048c-.328 0-.624-.044-.888-.132a1.735 1.735 0 01-.67-.403 1.796 1.796 0 01-.425-.676 2.758 2.758 0 01-.15-.95c0-.283.03-.577.087-.883.057-.306.144-.605.26-.898.116-.292.262-.569.44-.83.178-.262.388-.492.63-.688.243-.197.518-.353.827-.469a2.92 2.92 0 011.027-.173c.211 0 .41.022.599.066a2.1 2.1 0 01.492.176c.14.073.238.14.294.199a.316.316 0 01.082.225zM90.938 34.891c0 .268-.025.554-.073.859a5.076 5.076 0 01-.233.906c-.107.3-.247.587-.422.861a2.964 2.964 0 01-1.517 1.224 3.295 3.295 0 01-1.152.187c-.365 0-.686-.04-.965-.123a1.812 1.812 0 01-.704-.38 1.6 1.6 0 01-.434-.643 2.575 2.575 0 01-.147-.914c0-.286.025-.585.074-.897.05-.312.13-.619.24-.919.11-.3.254-.585.43-.856.178-.27.392-.51.642-.717.25-.207.542-.37.876-.491.334-.12.714-.18 1.138-.18.365 0 .686.041.965.125.278.084.513.211.702.383.19.173.333.39.431.652.1.263.149.57.149.923zm-1.256.114c0-.186-.02-.354-.061-.505a.954.954 0 00-.197-.381.88.88 0 00-.355-.24 1.501 1.501 0 00-.535-.084c-.262 0-.492.05-.69.153a1.786 1.786 0 00-.52.4c-.148.164-.271.352-.371.564a4.08 4.08 0 00-.24.644 4.544 4.544 0 00-.167 1.18c0 .189.02.358.062.507.04.149.106.275.198.377.092.102.21.18.357.234.146.056.326.083.54.083.258 0 .487-.05.686-.15.199-.101.371-.233.517-.396a2.31 2.31 0 00.368-.56c.1-.209.18-.423.24-.638.06-.216.103-.428.128-.635.027-.208.04-.391.04-.553zM96.137 38.403a.506.506 0 01-.346.404.586.586 0 01-.174.025h-.505a.925.925 0 01-.267-.033.392.392 0 01-.178-.114.775.775 0 01-.133-.223 3.64 3.64 0 01-.123-.36l-.863-2.64a13.09 13.09 0 01-.183-.617c-.056-.207-.109-.412-.16-.617h-.009a17.3 17.3 0 01-.235 1.412l-.596 3.018a.16.16 0 01-.043.082.235.235 0 01-.101.06.917.917 0 01-.174.037c-.07.008-.159.013-.264.013-.106 0-.192-.005-.26-.013a.623.623 0 01-.156-.037c-.036-.015-.06-.035-.07-.06a.117.117 0 01-.003-.082l1.053-5.316a.496.496 0 01.185-.322.532.532 0 01.325-.107h.62c.099 0 .184.012.254.034.071.023.132.06.181.11.05.05.093.114.131.194.038.08.074.177.107.292l.871 2.663c.058.17.11.34.156.507.047.167.096.334.147.502h.01c.033-.219.07-.445.11-.678.041-.233.082-.458.124-.677l.556-2.786a.16.16 0 01.04-.08.23.23 0 01.098-.056.98.98 0 01.17-.032c.07-.007.156-.011.262-.011.105 0 .192.004.261.011a.7.7 0 01.159.032.13.13 0 01.072.055c.012.023.015.05.01.08l-1.06 5.33zM101.887 33.087a2.209 2.209 0 01-.063.425.924.924 0 01-.057.166.456.456 0 01-.082.126.137.137 0 01-.101.05h-2.087l-.29 1.443h1.771c.043 0 .073.015.091.046.017.03.027.073.027.128a2.36 2.36 0 01-.064.42 1.004 1.004 0 01-.056.16.425.425 0 01-.079.119.136.136 0 01-.099.045h-1.767l-.334 1.667h2.114a.09.09 0 01.082.048.291.291 0 01.027.14 1.444 1.444 0 01-.025.253 3.845 3.845 0 01-.038.171 1.196 1.196 0 01-.057.162.405.405 0 01-.079.121.141.141 0 01-.104.045h-2.936a.4.4 0 01-.132-.02.21.21 0 01-.096-.068.269.269 0 01-.052-.119.47.47 0 01.004-.171l1.021-5.152a.453.453 0 01.162-.29.45.45 0 01.271-.089h2.909c.08 0 .119.058.119.174zM106.643 33.484c0 .086-.014.2-.043.343a1.428 1.428 0 01-.108.345c-.044.086-.093.13-.148.13-.039 0-.086-.025-.14-.075a1.648 1.648 0 00-.546-.324 1.467 1.467 0 00-.505-.076 1.36 1.36 0 00-.61.136c-.184.09-.348.208-.492.356a2.457 2.457 0 00-.38.509 3.533 3.533 0 00-.269.598c-.07.207-.123.414-.158.62a3.435 3.435 0 00-.052.573c0 .212.026.4.079.561.053.162.129.296.228.402a.928.928 0 00.366.24c.145.054.308.08.488.08.214 0 .397-.023.549-.068.152-.046.282-.096.389-.151.107-.055.195-.105.266-.151a.366.366 0 01.192-.068c.039 0 .066.014.079.043.014.029.021.07.021.121a.75.75 0 01-.009.096 5.463 5.463 0 01-.095.49 1.15 1.15 0 01-.052.147.39.39 0 01-.079.116.944.944 0 01-.194.13 2.086 2.086 0 01-.353.149 3.442 3.442 0 01-.47.116 3.063 3.063 0 01-.56.048 2.77 2.77 0 01-.887-.132 1.726 1.726 0 01-.671-.403 1.795 1.795 0 01-.425-.676 2.762 2.762 0 01-.149-.95 4.922 4.922 0 01.346-1.782c.116-.291.262-.568.441-.83.178-.261.387-.491.629-.687.243-.197.518-.353.827-.469a2.917 2.917 0 011.028-.173c.21 0 .41.022.598.066.188.044.353.103.493.176.139.073.237.14.293.199a.317.317 0 01.083.225zM111.53 33.105a1.604 1.604 0 01-.03.261c-.01.058-.024.118-.04.18-.017.063-.036.12-.059.172a.443.443 0 01-.081.128c-.032.034-.066.05-.102.05h-1.468l-.939 4.763a.184.184 0 01-.05.083.254.254 0 01-.11.06c-.05.014-.113.027-.19.036a2.603 2.603 0 01-.291.013c-.114 0-.209-.004-.284-.013a.758.758 0 01-.174-.037c-.041-.015-.068-.035-.082-.06a.12.12 0 01-.011-.082l.94-4.763h-1.454c-.046 0-.077-.016-.093-.05a.307.307 0 01-.025-.137 2.078 2.078 0 01.07-.45.902.902 0 01.061-.171.448.448 0 01.082-.126.134.134 0 01.099-.048h4.119c.037 0 .064.017.084.05.02.034.028.08.028.141zM115.333 38.375c.015.11.022.197.02.26-.001.064-.022.112-.063.144a.39.39 0 01-.201.06 4.956 4.956 0 01-.384.012c-.114 0-.208-.003-.28-.007a.744.744 0 01-.167-.026c-.039-.012-.066-.03-.081-.055a.221.221 0 01-.028-.1l-.158-1.188h-2.195l-.605 1.16a.448.448 0 01-.072.108.246.246 0 01-.118.066c-.051.015-.12.026-.205.032a4.836 4.836 0 01-.647-.004c-.076-.01-.127-.031-.153-.066-.026-.035-.028-.085-.01-.148.02-.064.059-.15.116-.257l2.836-5.242a.7.7 0 01.09-.126.288.288 0 01.129-.073.991.991 0 01.226-.032 9.707 9.707 0 01.795 0c.104.005.184.015.241.032.058.017.095.042.113.075.018.034.03.08.036.137l.765 5.238zm-1.775-4.333h-.005l-1.305 2.512h1.644l-.334-2.512zM120.979 34.202c0 .194-.026.388-.079.58a1.812 1.812 0 01-.251.543c-.114.17-.263.324-.445.46a2.209 2.209 0 01-.666.33.741.741 0 01.363.345c.098.172.179.407.242.705l.239 1.2c.013.068.022.128.03.182.007.053.011.098.011.135 0 .03-.01.056-.029.077a.23.23 0 01-.106.053 1.19 1.19 0 01-.21.03 5.19 5.19 0 01-.642-.002.731.731 0 01-.178-.037c-.042-.017-.07-.038-.084-.066a.366.366 0 01-.029-.096l-.226-1.31a2.373 2.373 0 00-.097-.403.98.98 0 00-.156-.29.588.588 0 00-.233-.173.857.857 0 00-.327-.057h-.371l-.447 2.255a.158.158 0 01-.045.083.258.258 0 01-.111.06 1.019 1.019 0 01-.192.034 2.993 2.993 0 01-.288.012 2.81 2.81 0 01-.283-.012.728.728 0 01-.173-.035c-.042-.014-.071-.034-.086-.057-.015-.022-.018-.05-.01-.084l1.067-5.371c.024-.134.077-.231.16-.29a.48.48 0 01.287-.089h1.567c.274 0 .521.026.743.077.221.052.41.132.566.238.157.106.277.24.362.402.084.162.127.35.127.57zm-1.273.223a.633.633 0 00-.043-.237.477.477 0 00-.138-.19.667.667 0 00-.246-.123 1.335 1.335 0 00-.364-.043h-.673l-.329 1.676h.564c.226 0 .417-.033.574-.098.156-.065.283-.15.38-.254a.956.956 0 00.209-.344c.043-.127.066-.256.066-.387z" fill="#fff"/></g><defs><clipPath id="clip0"><path fill="#fff" d="M0 0h120.979v60H0z"/></clipPath></defs></svg>