<svg width="48" height="48" viewBox="0 0 48 48" fill="none" xmlns="http://www.w3.org/2000/svg">
<path fill-rule="evenodd" clip-rule="evenodd" d="M39.6071 14.078C35.7167 9.90476 29.3494 9 24 9C18.6506 9 12.0458 9.90476 8.22321 14.3155C8.16921 14.3785 8.12238 14.4415 8.0713 14.5102L8.03095 14.5643C6.15357 16.8262 5 20.0042 5 24.3018C5 37.5452 15.8006 39.6601 24 39.6601C32.1994 39.6601 43 37.5339 43 24.2905C43 19.9929 41.869 16.7923 39.9577 14.553L39.6071 14.078ZM11.627 16.6792C14.183 12.7548 19.0348 11.7821 24.011 11.7821C28.9871 11.7821 33.7258 12.6869 36.3383 16.5548C36.3383 16.6144 36.3874 16.674 36.4339 16.7304C36.4579 16.7596 36.4812 16.7879 36.4967 16.8149C35.2801 17.5274 34.0182 18.0507 32.7656 18.5702C29.465 19.939 26.2287 21.2811 24.0562 25.9869C21.6044 21.4498 18.337 20.157 15.0782 18.8676C13.8124 18.3668 12.5479 17.8665 11.333 17.1768C11.4121 17.0184 11.5026 16.8601 11.5931 16.7018L11.627 16.6792ZM9.69309 24.2905C9.69309 34.8083 16.6145 36.9345 23.9544 36.8667L23.8979 36.878C31.249 36.9458 38.227 34.8196 38.227 24.3018C38.2327 23.3296 38.1684 22.3582 38.0348 21.3952C38.0402 21.3313 38.0402 21.2669 38.0348 21.203L30.5592 23.872C27.5961 25.0935 25.7187 27.0161 23.9544 30.7935C22.2014 26.9935 20.2562 25.297 17.3496 24.0869L9.93059 21.5875C9.91928 21.6243 9.90656 21.661 9.89383 21.6978C9.85566 21.808 9.8175 21.9183 9.8175 22.0286C9.71015 22.7775 9.66852 23.5343 9.69309 24.2905Z" fill="#757575"/>
</svg>
