<svg width="48" height="48" viewBox="0 0 48 48" fill="none" xmlns="http://www.w3.org/2000/svg">
<path fill-rule="evenodd" clip-rule="evenodd" d="M42 24C42 33.9489 33.9489 42 24 42C14.0511 42 6 33.9489 6 24C6 14.0511 14.0511 6 24 6C33.9489 6 42 14.0511 42 24ZM10.0153 31.3971C8.84684 29.1904 8.18531 26.6732 8.18531 24C8.18531 15.4579 14.9402 8.50844 23.4053 8.19626C23.3564 8.39104 23.3428 8.555 23.3428 8.555L21.2971 22.5048L10.2556 31.1885C10.2556 31.1885 10.1443 31.269 10.0153 31.3971ZM10.6571 32.499C10.8639 32.4446 11.0196 32.3798 11.0196 32.3798L24 27.1219L36.9804 32.3798C36.9804 32.3798 37.1422 32.4441 37.3493 32.4889C34.5437 36.8949 29.6161 39.8147 24 39.8147C18.3882 39.8147 13.4638 36.8994 10.6571 32.499ZM37.9883 31.3904C37.887 31.2934 37.8019 31.2296 37.8019 31.2296C37.6294 31.1146 26.6289 22.6198 26.6289 22.4473L24.6244 8.55502C24.6244 8.55502 24.5936 8.38972 24.5361 8.1942C33.0286 8.47636 39.8147 15.4382 39.8147 24C39.8147 26.6705 39.1545 29.1853 37.9883 31.3904Z" fill="#757575"/>
</svg>
