<?xml version="1.0" standalone="no"?>
<!DOCTYPE svg PUBLIC "-//W3C//DTD SVG 20010904//EN"
 "http://www.w3.org/TR/2001/REC-SVG-20010904/DTD/svg10.dtd">
<svg version="1.0" xmlns="http://www.w3.org/2000/svg"
 width="32.000000pt" height="32.000000pt" viewBox="0 0 32.000000 32.000000"
 preserveAspectRatio="xMidYMid meet">

<g transform="translate(0.000000,32.000000) scale(0.100000,-0.100000)"
fill="#fff" stroke="none">
<path d="M180 250 c0 -5 5 -10 10 -10 6 0 10 -4 10 -10 0 -5 -11 -10 -24 -10
-14 0 -28 -5 -31 -11 -5 -6 -27 -8 -61 -3 -50 6 -54 5 -54 -14 0 -11 -3 -29
-6 -39 -6 -15 -4 -16 7 -5 17 15 71 16 87 0 22 -22 13 -38 -20 -38 -24 0 -29
-3 -18 -10 19 -12 8 -22 -14 -14 -28 11 -14 39 18 37 33 -2 31 20 -3 25 -28 4
-51 -14 -51 -42 0 -46 59 -64 82 -26 9 13 24 20 46 20 29 0 35 5 49 37 l15 38
16 -39 c13 -33 17 -36 23 -20 7 18 7 18 14 1 4 -10 3 -23 -3 -29 -15 -15 -42
8 -42 35 0 16 -3 18 -11 10 -19 -19 -2 -62 26 -69 57 -14 76 59 22 84 -24 12
-27 18 -22 43 5 22 3 29 -9 29 -8 0 -18 9 -21 20 -6 20 -35 28 -35 10z"/>
</g>
</svg>
