<svg width="48" height="48" viewBox="0 0 48 48" fill="none" xmlns="http://www.w3.org/2000/svg">
<path d="M27.6405 25.8786C27.6056 25.8873 27.4659 25.8873 27.4048 25.8873H22.9V26.9349H27.4833C27.5183 26.9349 27.7889 26.9349 27.8413 26.9262C28.7754 26.8389 29.2032 26.0619 29.2032 25.381C29.2032 24.6825 28.7579 23.9317 27.9111 23.8532C27.7452 23.8357 27.6056 23.8357 27.5444 23.8357H24.55C24.419 23.8357 24.2706 23.827 24.2183 23.8095C23.9825 23.7484 23.8952 23.5389 23.8952 23.3643C23.8952 23.2071 23.9825 22.9976 24.227 22.9278C24.2968 22.9103 24.3754 22.9016 24.5413 22.9016H28.8627V21.8714H24.4714C24.2881 21.8714 24.1484 21.8802 24.0349 21.8976C23.2841 22.0024 22.7603 22.6048 22.7603 23.373C22.7603 24.0016 23.1532 24.7349 24.0175 24.8571C24.1746 24.8746 24.3929 24.8746 24.4889 24.8746H27.4048C27.4571 24.8746 27.5881 24.8746 27.6143 24.8833C27.946 24.927 28.0595 25.1714 28.0595 25.3897C28.0595 25.5992 27.9286 25.8262 27.6405 25.8786Z" fill="#757575"/>
<path d="M19.1024 25.8786C19.0675 25.8873 18.9278 25.8873 18.8754 25.8873H14.3619V26.9349H18.9452C18.9802 26.9349 19.2508 26.9349 19.3032 26.9262C20.2373 26.8389 20.6651 26.0619 20.6651 25.381C20.6651 24.6825 20.2198 23.9317 19.373 23.8532C19.2071 23.8357 19.0675 23.8357 19.0063 23.8357H16.0119C15.881 23.8357 15.7325 23.827 15.6802 23.8095C15.4444 23.7484 15.3571 23.5389 15.3571 23.3643C15.3571 23.2071 15.4444 22.9976 15.6889 22.9278C15.7587 22.9103 15.8373 22.9016 16.0032 22.9016H20.3246V21.8714H15.9333C15.75 21.8714 15.6103 21.8802 15.4968 21.8976C14.746 22.0024 14.2222 22.6048 14.2222 23.373C14.2222 24.0016 14.6151 24.7349 15.4794 24.8571C15.6365 24.8746 15.8548 24.8746 15.9508 24.8746H18.8667C18.919 24.8746 19.05 24.8746 19.0762 24.8833C19.4079 24.927 19.5214 25.1714 19.5214 25.3897C19.5214 25.5992 19.3992 25.8262 19.1024 25.8786Z" fill="#757575"/>
<path d="M12.0135 21.8365H10.8786V26.9611H12.0135V21.8365Z" fill="#757575"/>
<path d="M8.37302 26.9611V21.8365H7.2381V25.6603L3.45794 21.8365H2V26.9611H3.13492V23.1198L6.94127 26.9611H8.37302Z" fill="#757575"/>
<path d="M44.8738 21.8365V25.6603L41.0937 21.8365H39.6357V26.9611H40.7706V23.1198L44.5683 26.9611H46V21.8365H44.8738Z" fill="#757575"/>
<path d="M33.7254 21.8365L30.5302 26.9611H31.9095L32.477 26.0444H36.2048L36.7722 26.9611H38.1429L34.9476 21.8365H33.7254ZM35.6198 25.0754H33.0619L34.3452 23.0151L35.6198 25.0754Z" fill="#757575"/>
<path d="M8.31191 18.9294C10.5992 12.2508 16.9024 7.76349 24.0087 7.76349C31.1151 7.76349 37.427 12.2508 39.7056 18.9294L39.723 18.9817H44.7254V18.3794L42.6476 18.1349C41.3643 17.9865 41.0937 17.419 40.7444 16.7032L40.6571 16.5286C37.654 10.1381 31.1151 6 24.0087 6C16.8937 6 10.3635 10.1381 7.36032 16.546L7.27302 16.7206C6.92381 17.4365 6.65317 18.004 5.36984 18.1524L3.29206 18.3968V18.9992H8.28571L8.31191 18.9294Z" fill="#757575"/>
<path d="M39.723 29.8246L39.7056 29.877C37.4183 36.5556 31.1151 41.0341 24.0087 41.0341C16.9024 41.0341 10.5905 36.5468 8.3119 29.8683L8.29444 29.8159H3.30079V30.4183L5.37857 30.6627C6.6619 30.8111 6.93254 31.3786 7.28175 32.0944L7.36905 32.269C10.3722 38.677 16.9111 42.8151 24.0175 42.8151C31.1238 42.8151 37.6627 38.677 40.6659 32.2778L40.7532 32.1032C41.1024 31.3873 41.373 30.8198 42.6564 30.6714L44.7341 30.427V29.8246H39.723Z" fill="#757575"/>
</svg>
