<svg width="60" height="60" viewBox="0 0 60 60" fill="none" xmlns="http://www.w3.org/2000/svg">
<path d="M55 21.6667H33.35L33.4167 15.0167C33.4167 14.5667 33.25 14.15 32.9334 13.8334C32.6167 13.5167 32.1834 13.3334 31.75 13.3334H20C19.4167 13.3334 18.8667 13.6334 18.5667 14.15L13.9667 21.8167L7.51671 22.9C5.08337 23.3 3.33337 25.3667 3.33337 27.8167V35C3.33337 35.45 3.51671 35.8667 3.81671 36.1834L5.48337 37.85C5.80004 38.15 6.21671 38.3334 6.66671 38.3334H10.2167C10.95 41.2167 13.5667 43.3334 16.6667 43.3334C19.7667 43.3334 22.3834 41.2167 23.1167 38.3334H36.8834C37.6167 41.2167 40.2334 43.3334 43.3334 43.3334C46.4334 43.3334 49.05 41.2167 49.7834 38.3334H53.3334C53.7834 38.3334 54.2 38.15 54.5167 37.85L56.1834 36.1834C56.4834 35.8667 56.6667 35.45 56.6667 35V23.3334C56.6667 22.4167 55.9167 21.6667 55 21.6667ZM20.95 16.6667H30.0667L30 23.3167H16.95L20.95 16.6667ZM16.6667 40C14.8334 40 13.3334 38.5 13.3334 36.6667C13.3334 34.8334 14.8334 33.3334 16.6667 33.3334C18.5 33.3334 20 34.8334 20 36.6667C20 38.5 18.5 40 16.6667 40ZM43.3334 40C41.5 40 40 38.5 40 36.6667C40 34.8334 41.5 33.3334 43.3334 33.3334C45.1667 33.3334 46.6667 34.8334 46.6667 36.6667C46.6667 38.5 45.1667 40 43.3334 40ZM53.3334 34.3167L52.65 35H49.7834C49.05 32.1167 46.4334 30 43.3334 30C40.2334 30 37.6167 32.1167 36.8834 35H23.1167C22.3834 32.1167 19.7667 30 16.6667 30C13.5667 30 10.95 32.1167 10.2167 35H7.35004L6.66671 34.3167V30H9.16671C9.63337 30 10 29.6334 10 29.1667C10 28.7 9.63337 28.3334 9.16671 28.3334H6.66671V27.8167C6.66671 27 7.25004 26.3167 8.06671 26.1834L15.1667 25H53.3334V34.3167ZM25.8334 26.6667H27.5C27.9667 26.6667 28.3334 27.0334 28.3334 27.5C28.3334 27.9667 27.9667 28.3334 27.5 28.3334H25.8334C25.3667 28.3334 25 27.9667 25 27.5C25 27.0334 25.3667 26.6667 25.8334 26.6667Z" fill="#757575"/>
</svg>
