<svg width="60" height="60" viewBox="0 0 60 60" fill="none" xmlns="http://www.w3.org/2000/svg">
<path d="M55 24.9834H50.7167C50.35 24.6167 49.8667 24.1167 49.45 23.7334C44.3667 19.2167 39.7 18.3334 33.3334 18.3334C26.9667 18.3334 22.3 19.2167 17.2167 23.7334C16.7667 24.15 16.2167 24.7 15.85 25.0834L7.63337 26.2667C5.18337 26.6167 3.33337 28.75 3.33337 31.2167V36.65C3.33337 37.1 3.51671 37.5167 3.81671 37.8334L5.48337 39.5C5.80004 39.8 6.21671 39.9834 6.66671 39.9834H10.0667C10.4667 42.8 12.9 44.9834 15.8334 44.9834C18.7667 44.9834 21.2 42.8 21.6 39.9834H38.4C38.8 42.8 41.2334 44.9834 44.1667 44.9834C47.1 44.9834 49.5334 42.8 49.9334 39.9834H53.3334C53.7834 39.9834 54.2 39.8 54.5167 39.5L56.1834 37.8334C56.4834 37.5167 56.6667 37.1 56.6667 36.65V26.65C56.6667 25.7334 55.9167 24.9834 55 24.9834ZM35.0834 21.7C39.85 21.85 43.3667 22.8 47.2167 26.2334C47.3667 26.35 47.5167 26.5 47.6834 26.65H32.6L35.0834 21.7ZM19.45 26.2334C23.7167 22.4 27.6 21.6834 33.2334 21.6667L30.7334 26.65H18.9834C19.15 26.5 19.3 26.35 19.45 26.2334ZM15.8334 41.65C14.45 41.65 13.3334 40.5334 13.3334 39.15C13.3334 37.7667 14.45 36.65 15.8334 36.65C17.2167 36.65 18.3334 37.7667 18.3334 39.15C18.3334 40.5334 17.2167 41.65 15.8334 41.65ZM44.1667 41.65C42.7834 41.65 41.6667 40.5334 41.6667 39.15C41.6667 37.7667 42.7834 36.65 44.1667 36.65C45.55 36.65 46.6667 37.7667 46.6667 39.15C46.6667 40.5334 45.55 41.65 44.1667 41.65ZM53.3334 35.9667L52.65 36.65H49.4334C48.5 34.6834 46.4834 33.3167 44.1667 33.3167C41.85 33.3167 39.8334 34.6834 38.9 36.65H21.1C20.1667 34.6834 18.15 33.3167 15.8334 33.3167C13.5167 33.3167 11.5 34.6834 10.5667 36.65H7.35004L6.66671 35.9667V33.3167H9.16671C9.63337 33.3167 10 32.95 10 32.4834C10 32.0167 9.63337 31.65 9.16671 31.65H6.66671V31.2167C6.66671 30.3834 7.28337 29.6834 8.10004 29.5667L16.7834 28.3167H53.3334V35.9667ZM27.5 29.9834H29.1667C29.6334 29.9834 30 30.35 30 30.8167C30 31.2834 29.6334 31.65 29.1667 31.65H27.5C27.0334 31.65 26.6667 31.2834 26.6667 30.8167C26.6667 30.35 27.0334 29.9834 27.5 29.9834ZM42.5 29.9834H44.1667C44.6334 29.9834 45 30.35 45 30.8167C45 31.2834 44.6334 31.65 44.1667 31.65H42.5C42.0334 31.65 41.6667 31.2834 41.6667 30.8167C41.6667 30.35 42.0334 29.9834 42.5 29.9834Z" fill="#757575"/>
</svg>
