<svg width="60" height="60" viewBox="0 0 60 60" fill="none" xmlns="http://www.w3.org/2000/svg">
<path d="M56.4833 24.25L53.15 17.5833C52.8666 17.0166 52.3 16.6666 51.6666 16.6666H25C24.7166 16.6666 24.45 16.7333 24.2 16.8666C24.05 16.95 20.4666 18.9333 15.8833 23.4333L7.63331 24.6166C5.18331 24.95 3.33331 27.0833 3.33331 29.55V35C3.33331 35.45 3.51665 35.8666 3.81665 36.1833L5.48331 37.85C5.79998 38.15 6.21665 38.3333 6.66665 38.3333H10.0666C10.4666 41.15 12.9 43.3333 15.8333 43.3333C18.7666 43.3333 21.2 41.15 21.6 38.3333H38.4C38.8 41.15 41.2333 43.3333 44.1666 43.3333C47.1 43.3333 49.5333 41.15 49.9333 38.3333H53.3333C53.7833 38.3333 54.2 38.15 54.5166 37.85L56.1833 36.1833C56.4833 35.8666 56.6666 35.45 56.6666 35V25C56.6666 24.7333 56.6 24.4833 56.4833 24.25ZM45 20H50.6333L53.1333 25H45V20ZM33.3333 20H43.3333V25H33.3333V20ZM25.45 20H31.6666V25H19.0666C22.1166 22.15 24.5833 20.5333 25.45 20ZM15.8333 40C14.45 40 13.3333 38.8833 13.3333 37.5C13.3333 36.1166 14.45 35 15.8333 35C17.2166 35 18.3333 36.1166 18.3333 37.5C18.3333 38.8833 17.2166 40 15.8333 40ZM44.1666 40C42.7833 40 41.6666 38.8833 41.6666 37.5C41.6666 36.1166 42.7833 35 44.1666 35C45.55 35 46.6666 36.1166 46.6666 37.5C46.6666 38.8833 45.55 40 44.1666 40ZM53.3333 34.3166L52.65 35H49.4333C48.5 33.0333 46.4833 31.6666 44.1666 31.6666C41.85 31.6666 39.8333 33.0333 38.9 35H21.1C20.1666 33.0333 18.15 31.6666 15.8333 31.6666C13.5166 31.6666 11.5 33.0333 10.5666 35H7.34998L6.66665 34.3166V31.6666H9.16665C9.63331 31.6666 9.99998 31.3 9.99998 30.8333C9.99998 30.3666 9.63331 30 9.16665 30H6.66665V29.55C6.66665 28.7333 7.28331 28.0166 8.09998 27.9L16.7833 26.6666H53.3333V34.3166ZM27.5 28.3333H29.1666C29.6333 28.3333 30 28.7 30 29.1666C30 29.6333 29.6333 30 29.1666 30H27.5C27.0333 30 26.6666 29.6333 26.6666 29.1666C26.6666 28.7 27.0333 28.3333 27.5 28.3333ZM39.1666 28.3333H40.8333C41.3 28.3333 41.6666 28.7 41.6666 29.1666C41.6666 29.6333 41.3 30 40.8333 30H39.1666C38.7 30 38.3333 29.6333 38.3333 29.1666C38.3333 28.7 38.7 28.3333 39.1666 28.3333Z" fill="#757575"/>
</svg>
