<svg width="48" height="48" viewBox="0 0 48 48" fill="none" xmlns="http://www.w3.org/2000/svg">
<path d="M24.0696 35.716C22.4169 35.722 21.2476 35.619 19.8448 35.4671C17.1249 35.1736 14.4624 34.6209 11.8829 33.6981C10.0029 33.0255 8.20958 32.178 6.56819 31.0318C5.24971 30.1115 4.07928 29.0407 3.1986 27.6788C2.58212 26.7266 2.17112 25.6953 2.04221 24.5658C1.88777 23.2154 2.16219 21.9428 2.7825 20.7418C3.39516 19.5573 4.25542 18.572 5.25992 17.7041C7.01491 16.189 9.03028 15.1233 11.1746 14.2796C13.1529 13.501 15.2002 12.9662 17.2896 12.591C19.9967 12.1034 22.7281 11.9311 25.4761 12.0243C29.0142 12.1442 32.4757 12.7109 35.8287 13.8635C37.867 14.5642 39.8071 15.473 41.5672 16.7327C42.8742 17.6683 44.0344 18.7507 44.8896 20.1317C45.5099 21.1349 45.9043 22.2147 45.9847 23.3966C46.0804 24.807 45.7243 26.1127 45.0197 27.3303C44.3471 28.4931 43.446 29.4568 42.4121 30.303C40.7465 31.6674 38.8651 32.6515 36.8702 33.4352C34.9314 34.1984 32.9301 34.7447 30.8764 35.0868C29.6907 35.2846 28.496 35.4391 27.3001 35.5501C26.2341 35.6491 25.3328 35.7115 24.0696 35.716ZM30.2625 33.924C30.2625 33.924 34.0775 33.1225 35.9078 32.4294C37.8224 31.7032 39.6322 30.788 41.2277 29.4848C42.1773 28.7101 42.9993 27.8243 43.5979 26.7471C44.1761 25.7081 44.4581 24.5951 44.365 23.4043C44.282 22.3296 43.9004 21.3557 43.312 20.4584C42.5015 19.2216 41.4179 18.2657 40.2091 17.4411C38.6609 16.3856 36.9698 15.6147 35.2033 15.0058C33.1777 14.3089 31.0959 13.8507 28.9734 13.5712C27.6255 13.3938 26.2739 13.2891 24.9158 13.2623C22.5022 13.2151 20.1027 13.3772 17.7223 13.7933C16.0528 14.0843 14.4101 14.4813 12.8083 15.0365C11.0673 15.6389 9.39786 16.3932 7.86495 17.4233C6.62306 18.2567 5.50497 19.2242 4.68045 20.4903C3.63766 22.0922 3.31347 23.8076 3.91463 25.6507C4.34221 26.9628 5.15142 28.0285 6.1457 28.9628C7.43738 30.1754 8.93711 31.0726 10.5415 31.8002C13.6698 33.2169 16.9756 33.9406 20.3758 34.2584C21.5998 34.3733 22.5639 34.4628 23.9698 34.4716C26.4365 34.487 30.2625 33.924 30.2625 33.924Z" fill="#757575"/>
<path d="M41.4281 21.1209C41.4715 21.2231 41.3285 21.3174 41.2353 21.3302C40.9686 21.3685 40.7005 21.394 40.4351 21.4349C39.6169 21.5587 38.7975 21.6812 37.9806 21.8152C37.5594 21.8841 37.2888 22.1458 37.1752 22.5504C37.0157 23.1171 36.874 23.6902 36.726 24.2594C36.7041 24.3469 36.6591 24.5127 36.5447 24.4943C36.475 24.483 36.4235 24.4254 36.4094 24.3743C36.3392 24.1152 36.2907 23.851 36.2231 23.5906C36.1401 23.2703 36.038 22.9537 35.9576 22.6321C35.8274 22.1088 35.4853 21.8484 34.962 21.7833C33.8261 21.6416 32.694 21.4578 31.5554 21.3583C30.9504 21.3059 30.3327 21.3723 29.7226 21.4221C28.8764 21.4923 28.0314 21.5944 27.1877 21.6888C26.4436 21.7718 25.6982 21.8573 24.9554 21.9543C24.0658 22.0705 23.1774 22.1905 22.2904 22.3232C21.7798 22.3998 21.2693 22.4878 20.7677 22.6027C20.0848 22.7597 19.6138 23.1784 19.3407 23.8306C19.0535 24.5147 18.8901 25.2346 18.7229 25.9506C18.4932 26.9347 18.2966 27.9277 18.0848 28.9156C18.0673 29.0027 18.0103 29.1419 17.9035 29.1249C17.8297 29.1132 17.781 29.0458 17.7682 28.9896C17.6853 28.6361 17.6278 28.2761 17.5436 27.9226C17.2628 26.7445 16.9845 25.5664 16.6859 24.3934C16.3859 23.2141 15.5882 22.5861 14.405 22.4176C12.9844 22.216 11.5664 22.0016 10.142 21.8229C8.92178 21.6697 7.69648 21.5587 6.47373 21.4285C6.17506 21.3966 5.87512 21.3647 5.57645 21.3315C5.49715 21.3233 5.33624 21.2705 5.33905 21.1668C5.3416 21.117 5.41818 21.0417 5.47306 21.029C5.63261 20.9945 5.79726 20.9843 5.95936 20.9664C6.983 20.8567 8.00663 20.7507 9.029 20.6359C10.9167 20.4253 12.8045 20.2159 14.6692 19.8445C15.084 19.7615 15.4874 19.6377 15.8371 19.385C16.2187 19.108 16.4727 18.7277 16.6182 18.2937C16.9245 17.376 17.199 16.4468 17.4798 15.5202C17.5768 15.1973 17.6546 14.8693 17.7401 14.5438C17.7583 14.4712 17.8162 14.3238 17.9239 14.3357C18.0045 14.3447 18.0567 14.4187 18.0733 14.48C18.1588 14.7889 18.2162 15.1067 18.3068 15.4143C18.5762 16.3218 18.848 17.2305 19.1352 18.1329C19.453 19.1297 20.1422 19.7016 21.1799 19.8471C22.3389 20.0092 23.4991 20.1751 24.6593 20.3244C25.8527 20.4789 27.0473 20.6231 28.242 20.7571C29.2542 20.8707 30.2612 21.0634 31.2836 21.0149C31.8988 20.9856 32.5127 20.9052 33.1254 20.8273C33.7738 20.7456 34.4196 20.6422 35.0667 20.5452C35.1701 20.5299 35.2735 20.5006 35.3717 20.4635C35.6206 20.3716 35.8172 20.2147 35.9027 19.9568C36.0661 19.468 36.2167 18.9753 36.3737 18.4839C36.3985 18.3846 36.44 18.2533 36.5524 18.258C36.653 18.2622 36.6966 18.3627 36.7221 18.452C36.8319 18.826 36.9366 19.2012 37.0463 19.5752C37.0731 19.6658 37.1101 19.7539 37.1408 19.8432C37.2799 20.2466 37.5722 20.4776 37.9832 20.544C38.8205 20.6805 39.6616 20.8018 40.5014 20.9256C40.7567 20.9639 41.0158 20.9843 41.2698 21.0264C41.3336 21.0366 41.3999 21.0546 41.4281 21.1209Z" fill="#757575"/>
<path d="M23.3497 33.1761C23.2476 32.7561 23.1685 32.3311 23.0549 31.915C22.986 31.6623 22.8762 31.4211 22.7728 31.1786C22.6414 30.8684 22.3988 30.6808 22.0708 30.6246C21.5309 30.5315 20.9897 30.4421 20.446 30.3732C19.7555 30.2851 19.0612 30.2187 18.3694 30.1422C18.2751 30.1304 18.118 30.0995 18.1537 29.9724C18.169 29.9163 18.2494 29.8499 18.3107 29.8371C18.4906 29.8014 18.677 29.7912 18.8595 29.7682C19.8997 29.6316 20.9412 29.4976 21.9815 29.3572C22.4537 29.2934 22.7562 29.0126 22.9068 28.5735C23.0536 28.1459 23.1787 27.7107 23.314 27.278C23.3467 27.1659 23.3782 26.9982 23.5029 27.0164C23.593 27.0295 23.6356 27.1223 23.6586 27.1899C23.762 27.5052 23.8462 27.8256 23.9445 28.1434C23.9905 28.294 24.0543 28.4395 24.1041 28.5888C24.2687 29.0802 24.6274 29.3176 25.1252 29.3866C26.076 29.5193 27.0244 29.6674 27.9765 29.7912C28.4973 29.8588 29.0219 29.8103 29.5388 29.7286C30.2778 29.6112 31.0155 29.4823 31.7546 29.3572C32.1298 29.2934 32.3966 29.0917 32.5191 28.728C32.6518 28.3336 32.768 27.9353 32.8918 27.5384C32.9163 27.4622 32.9557 27.3021 33.0654 27.315C33.136 27.3234 33.1866 27.3814 33.2045 27.4325C33.2875 27.6826 33.35 27.9379 33.4291 28.1893C33.4866 28.3744 33.5555 28.5569 33.6244 28.7394C33.7597 29.0994 34.0265 29.301 34.4017 29.3547C35.3105 29.4861 36.2192 29.6125 37.128 29.7363C37.3475 29.7669 37.5696 29.7784 37.7892 29.8039C37.8849 29.8154 37.9934 29.8346 37.9883 29.9609C37.9845 30.0809 37.8823 30.1026 37.7828 30.1166C36.6634 30.2634 35.5441 30.4128 34.4247 30.5557C34.0201 30.6068 33.7508 30.825 33.6193 31.199C33.4802 31.5959 33.3653 32.0018 33.2402 32.4039C33.2147 32.4856 33.1746 32.6592 33.0603 32.64C32.9907 32.6283 32.9428 32.5711 32.9263 32.5187C32.8433 32.2469 32.7807 31.9686 32.6991 31.6968C32.6391 31.4951 32.5689 31.296 32.4897 31.102C32.3647 30.7931 32.1247 30.6106 31.7992 30.5634C30.7603 30.414 29.7239 30.2481 28.6798 30.146C28.2407 30.1039 27.7851 30.1894 27.3422 30.2481C26.5891 30.3477 25.8412 30.4804 25.0881 30.5825C24.5699 30.6527 24.2521 30.9463 24.1117 31.4275C23.9471 31.9929 23.8131 32.5672 23.6599 33.1365C23.6411 33.2062 23.6157 33.3697 23.5077 33.3675C23.4108 33.3656 23.3664 33.2451 23.3497 33.1761Z" fill="#757575"/>
<path d="M43.2328 25.5256C43.2234 25.6187 43.146 25.6698 43.0516 25.6826C42.6802 25.7336 42.3088 25.7783 41.9386 25.8383C41.3872 25.9276 40.8358 26.0208 40.287 26.1242C39.9526 26.1867 39.7292 26.3922 39.6373 26.7215C39.5084 27.1823 39.3885 27.6469 39.2646 28.1089C39.2348 28.2283 39.2139 28.385 39.0911 28.3731C39.0023 28.3646 38.9494 28.2749 38.9302 28.211C38.8511 27.9328 38.7975 27.6469 38.7247 27.3674C38.6673 27.1427 38.6009 26.9206 38.5282 26.7011C38.4299 26.4063 38.2321 26.1995 37.9257 26.1267C37.017 25.9085 36.1031 25.703 35.165 25.6877C34.7029 25.68 34.2383 25.7438 33.7789 25.8077C33.0641 25.9072 32.3519 26.0336 31.6397 26.1523C31.5363 26.1689 31.4367 26.2084 31.3372 26.2403C31.0206 26.3437 30.7896 26.5454 30.7003 26.8696C30.565 27.3559 30.4476 27.8473 30.3238 28.3374C30.2931 28.4599 30.2816 28.5888 30.237 28.705C30.2114 28.7714 30.1682 28.8747 30.0787 28.8709C29.9933 28.8673 29.9498 28.7701 29.9332 28.7075C29.8349 28.331 29.7507 27.9494 29.66 27.5703C29.623 27.4171 29.5822 27.264 29.5413 27.1121C29.3639 26.4484 29.0755 26.2046 28.399 26.1191C27.2579 25.9761 26.1169 25.8268 24.9771 25.68C24.8826 25.6685 24.7767 25.6711 24.7716 25.5358C24.7652 25.389 24.8826 25.3852 24.9796 25.3724C25.5553 25.3022 26.1335 25.2461 26.7091 25.1656C27.3932 25.0712 28.0761 24.9678 28.7551 24.8478C29.1087 24.7853 29.3524 24.5619 29.466 24.2186C29.6205 23.7489 29.7647 23.2754 29.9128 22.8031C29.9345 22.7336 29.9847 22.5983 30.0876 22.6053C30.1682 22.6107 30.2204 22.6844 30.2408 22.7444C30.3301 23.0137 30.3991 23.2907 30.4833 23.5613C30.5522 23.7821 30.6301 24.0003 30.7067 24.2186C30.8266 24.5607 31.0704 24.7776 31.4189 24.8491C31.9817 24.9653 32.5459 25.0737 33.1139 25.1618C33.6448 25.2435 34.1809 25.3022 34.7157 25.3584C35.2722 25.4171 35.8223 25.3405 36.3673 25.2358C36.8893 25.135 37.4114 25.0252 37.9308 24.9155C38.2219 24.8542 38.4273 24.6742 38.5282 24.4011C38.6711 24.0118 38.7924 23.6136 38.9187 23.2179C38.9481 23.1247 38.9685 23.0226 39.0898 23.0239C39.2098 23.0252 39.2327 23.1286 39.2621 23.2205C39.3884 23.611 39.5097 24.0029 39.6488 24.3883C39.7637 24.7087 40.0139 24.89 40.3432 24.9436C41.2175 25.0878 42.0931 25.2205 42.9686 25.3584C43.0395 25.3694 43.2451 25.4041 43.2328 25.5256Z" fill="#757575"/>
</svg>
