<svg width="48" height="48" viewBox="0 0 48 48" fill="none" xmlns="http://www.w3.org/2000/svg">
<path fill-rule="evenodd" clip-rule="evenodd" d="M23.9901 10C11.8645 10 2 16.1715 2 23.7648C2 31.3582 11.8743 37.5197 23.9901 37.5197C36.1059 37.5197 46 31.3483 46 23.7648C46 16.1813 36.1257 10 23.9901 10ZM26.0638 12.4982C31.2182 12.8043 34.9507 14.1768 35.5925 15.974C35.7643 16.4598 35.7062 16.9974 35.4345 17.4354C34.7236 18.6499 32.4722 19.6571 29.3421 20.1903L29.0063 20.2495L28.9471 19.9138C28.4336 16.754 27.2882 14.2657 25.8268 13.1005L24.9974 12.4291L26.0638 12.4982ZM27.11 20.4865L27.0508 20.1212H27.0014C26.4978 17.2675 25.4117 15.5593 24.0293 15.5593C22.6469 15.5593 21.5113 17.2675 21.0077 20.1212L20.9386 20.4865H21.3138C22.1926 20.5952 23.1109 20.5952 24.0293 20.5952C24.9476 20.5952 25.856 20.5557 26.7447 20.4865H27.11ZM12.4272 15.974C13.0691 14.1768 16.8016 12.8142 21.956 12.4982L23.0125 12.439L22.1831 13.1005C20.7217 14.2657 19.5861 16.754 19.0628 19.9138L19.0035 20.2496L18.6678 20.1903C15.508 19.6571 13.2962 18.6499 12.5852 17.4354C12.4183 17.1653 12.3294 16.8543 12.3285 16.5368C12.3305 16.3451 12.3638 16.1549 12.4272 15.974ZM5.59386 23.9623C5.59386 29.6499 12.5256 34.4883 21.7779 35.14L22.7752 35.2289L21.9951 34.5575C19.9906 32.8393 18.7366 28.7415 18.7366 23.8833V22.7379L18.4502 22.6786C13.6316 21.8097 10.1755 19.7756 9.68183 17.4946L9.56334 16.9515L9.12887 17.307C7.0054 18.8773 5.70598 21.3237 5.59386 23.9623ZM20.6918 23.4785V22.9847H21.0571C22.0445 23.0637 23.032 23.1131 24.0194 23.1131C25.0068 23.1131 25.9943 23.1131 26.9817 22.9847H27.3471V23.4785C27.3471 27.991 25.935 31.3779 24.049 31.3779C22.163 31.3779 20.6918 27.991 20.6918 23.4785ZM25.2635 35.219L26.2509 35.14C35.444 34.4883 42.3757 29.6499 42.4449 23.9623C42.3327 21.3237 41.0333 18.8773 38.9098 17.307L38.4852 16.9515L38.3668 17.4946C37.8829 19.7756 34.4368 21.8097 29.5983 22.6786L29.312 22.728V23.8734C29.312 28.7316 28.0185 32.8294 26.0436 34.5476L25.2635 35.219Z" fill="#757575"/>
</svg>
