<svg width="60" height="60" viewBox="0 0 60 60" fill="none" xmlns="http://www.w3.org/2000/svg">
<path d="M55 13.3334H16.6667C16.0334 13.3334 15.45 13.6834 15.1834 14.25L10.4167 23.75L4.25004 26.85C3.68337 27.1167 3.33337 27.7 3.33337 28.3334V38.3334C3.33337 38.7834 3.51671 39.2 3.81671 39.5167L5.48337 41.1834C5.80004 41.4834 6.21671 41.6667 6.66671 41.6667H10.2167C10.95 44.55 13.5667 46.6667 16.6667 46.6667C19.7667 46.6667 22.3834 44.55 23.1167 41.6667H36.8834C37.6167 44.55 40.2334 46.6667 43.3334 46.6667C46.4334 46.6667 49.0667 44.5334 49.7834 41.65C49.85 41.6667 49.9334 41.6667 50 41.6667H53.3334C53.7834 41.6667 54.2 41.4834 54.5167 41.1834L56.1834 39.5167C56.4834 39.2 56.6667 38.7834 56.6667 38.3334V15C56.6667 14.0834 55.9167 13.3334 55 13.3334ZM28.3334 16.6667H40V25H28.3334V16.6667ZM17.7 16.6667H23.55V23.5667L22.25 25H13.5167L17.7 16.6667ZM16.6667 43.3334C14.8334 43.3334 13.3334 41.8334 13.3334 40C13.3334 38.1667 14.8334 36.6667 16.6667 36.6667C18.5 36.6667 20 38.1667 20 40C20 41.8334 18.5 43.3334 16.6667 43.3334ZM43.3334 43.3334C41.5 43.3334 40 41.8334 40 40C40 38.1667 41.5 36.6667 43.3334 36.6667C45.1667 36.6667 46.6667 38.1667 46.6667 40C46.6667 41.8334 45.1667 43.3334 43.3334 43.3334ZM53.3334 37.65L52.65 38.3334H50C50 38.3334 49.85 38.3334 49.7834 38.35C49.0667 35.4667 46.45 33.3334 43.3334 33.3334C40.2167 33.3334 37.6167 35.45 36.8834 38.3334H23.1167C22.3834 35.45 19.7667 33.3334 16.6667 33.3334C13.5667 33.3334 10.95 35.45 10.2167 38.3334H7.35004L6.66671 37.65V31.6667H9.16671C9.63337 31.6667 10 31.3 10 30.8334C10 30.3667 9.63337 30 9.16671 30H6.66671V29.3667L12.05 26.6667H22.25C22.7334 26.6667 23.1834 26.4667 23.4834 26.1167L24.7834 24.7C25.0667 24.3834 25.2167 23.9834 25.2167 23.5667V16.6667H26.6667V25C26.6667 25.9167 27.4167 26.6667 28.3334 26.6667H53.3334V37.65ZM53.3334 25H41.6667V16.6667H53.3334V25ZM20.8334 28.3334H22.5C22.9667 28.3334 23.3334 28.7 23.3334 29.1667C23.3334 29.6334 22.9667 30 22.5 30H20.8334C20.3667 30 20 29.6334 20 29.1667C20 28.7 20.3667 28.3334 20.8334 28.3334ZM30.8334 30H29.1667C28.7 30 28.3334 29.6334 28.3334 29.1667C28.3334 28.7 28.7 28.3334 29.1667 28.3334H30.8334C31.3 28.3334 31.6667 28.7 31.6667 29.1667C31.6667 29.6334 31.3 30 30.8334 30Z" fill="#757575"/>
<path d="M53.3333 16.1666C53.6095 16.1666 53.8333 16.3905 53.8333 16.6666V25C53.8333 25.2761 53.6095 25.5 53.3333 25.5H51.6666H29.7778H28.3333C28.0572 25.5 27.8333 25.2761 27.8333 25V16.6666C27.8333 16.3905 28.0572 16.1666 28.3333 16.1666H53.3333Z" stroke="#757575" stroke-linejoin="round"/>
<rect x="5.41667" y="30.4167" width="4.16667" height="0.833333" rx="0.416667" stroke="#757575" stroke-width="0.833333"/>
</svg>
