<svg width="48" height="48" viewBox="0 0 48 48" fill="none" xmlns="http://www.w3.org/2000/svg">
<path d="M24 39.879C15.321 39.879 8.1855 32.679 8.1855 24C8.1855 22.2 8.5065 20.4645 9.0855 18.7935L18.3435 36.7935C18.471 37.05 18.6 37.2435 18.921 37.2435C19.2435 37.2435 19.371 37.05 19.5 36.7935L23.8065 27.2145C23.871 27.0855 23.9355 27.021 24 27.021C24.129 27.021 24.129 27.15 24.1935 27.2145L28.5645 36.7935C28.6935 37.05 28.821 37.2435 29.1435 37.2435C29.4645 37.2435 29.5935 37.05 29.721 36.7935L38.979 18.7935C39.5565 20.4 39.879 22.1355 39.879 24C39.8145 32.679 32.679 39.879 24 39.879ZM24 19.8855C23.871 19.8855 23.871 19.7565 23.8065 19.6935L18.8565 9.021C22.1809 7.82335 25.8191 7.82335 29.1435 9.021L24.1935 19.6935C24.129 19.7565 24.129 19.8855 24 19.8855ZM18.7935 31.4565C18.6645 31.4565 18.6645 31.329 18.6 31.2645L10.5 15.705C11.9145 13.392 13.971 11.463 16.35 10.113L22.071 22.455C22.2 22.713 22.329 22.7775 22.521 22.7775H25.479C25.671 22.7775 25.8 22.713 25.929 22.455L31.5855 10.113C33.9645 11.463 36.021 13.392 37.4355 15.705L29.4 31.2645C29.3355 31.3935 29.271 31.4565 29.2065 31.4565C29.079 31.4565 29.079 31.329 29.0145 31.2645L25.929 24.45C25.8 24.1935 25.671 24.129 25.479 24.129H22.521C22.329 24.129 22.2 24.1935 22.071 24.45L18.9855 31.2645C18.921 31.329 18.921 31.4565 18.7935 31.4565ZM24 42C33.9645 42 42 33.9645 42 24C42 14.0355 33.9645 6 24 6C14.0355 6 6 14.0355 6 24C6 33.9645 14.0355 42 24 42Z" fill="#757575"/>
</svg>
