<?xml version="1.0" standalone="no"?>
<!DOCTYPE svg PUBLIC "-//W3C//DTD SVG 20010904//EN"
 "http://www.w3.org/TR/2001/REC-SVG-20010904/DTD/svg10.dtd">
<svg version="1.0" xmlns="http://www.w3.org/2000/svg"
 width="80.000000pt" height="50.000000pt" viewBox="0 0 80.000000 50.000000"
 preserveAspectRatio="xMidYMid meet">

<g transform="translate(0.000000,50.000000) scale(0.100000,-0.100000)"
fill="#000000" stroke="none">
<path d="M280 470 c-72 -15 -166 -67 -204 -112 -85 -99 -46 -217 94 -287 83
-41 157 -54 265 -48 137 7 249 58 306 139 19 25 24 46 24 90 0 48 -5 62 -31
95 -68 84 -163 123 -309 129 -55 2 -120 -1 -145 -6z m351 -139 c27 -33 27
-129 0 -162 -19 -24 -21 -24 -231 -24 -211 0 -212 0 -231 24 -13 16 -19 39
-19 78 0 62 12 90 43 103 12 5 111 8 220 7 196 -2 199 -2 218 -26z"/>
<path d="M350 250 c0 -22 4 -40 8 -40 19 0 102 33 102 40 0 7 -83 40 -102 40
-4 0 -8 -18 -8 -40z"/>
</g>
</svg>
