<svg width="48" height="48" viewBox="0 0 48 48" fill="none" xmlns="http://www.w3.org/2000/svg">
<path fill-rule="evenodd" clip-rule="evenodd" d="M38.3013 16C36.559 15.9972 34.8697 16.5992 33.5219 17.7032C32.1649 16.5991 30.4683 15.9974 28.7188 16C26.976 15.9931 25.2856 16.5956 23.9401 17.7032C22.6271 16.6415 20.9678 16 19.16 16C17.4179 15.9973 15.7289 16.5993 14.3812 17.7032C13.0689 16.6415 11.4096 16 9.60116 16C5.39246 16 2 19.3816 2 23.5782C2 27.7741 5.39246 31.1564 9.6018 31.1564C11.4096 31.1564 13.0931 30.5143 14.3812 29.4532C15.6936 30.5143 17.3528 31.1558 19.16 31.1558C20.9678 31.1558 22.6513 30.5143 23.9394 29.4532C25.2966 30.5572 26.9935 31.1587 28.7431 31.1558C30.5758 31.1558 32.2344 30.5143 33.5467 29.4532C34.8591 30.5143 36.5183 31.1558 38.3261 31.1558C42.5355 31.1558 45.9279 27.7748 45.9279 23.5782C45.9031 19.4065 42.5106 16 38.3013 16ZM33.5219 26.9847C32.8102 25.9917 32.4292 24.7999 32.4327 23.5782C32.4327 22.3194 32.8287 21.1346 33.5219 20.1717C34.2337 21.1647 34.615 22.3565 34.6117 23.5782C34.6117 24.8619 34.1908 26.0218 33.5219 26.9847ZM23.9394 26.9847C23.2276 25.9917 22.8463 24.7999 22.8496 23.5782C22.8496 22.3194 23.2456 21.1346 23.9394 20.1717C24.651 21.1647 25.0321 22.3565 25.0286 23.5782C25.0286 24.8619 24.6077 26.0218 23.9394 26.9847ZM14.3563 26.9847C13.6445 25.9917 13.2632 24.7999 13.2666 23.5782C13.2666 22.3194 13.6632 21.1346 14.3563 20.1717C15.068 21.1647 15.449 22.3565 15.4455 23.5782C15.4455 24.8619 15.0246 26.0218 14.3563 26.9847ZM3.65925 23.5782C3.65925 20.3445 6.28394 17.7032 9.5527 17.7032C10.8501 17.6993 12.1124 18.1246 13.1428 18.9129C12.1277 20.1966 11.5333 21.801 11.5333 23.5782C11.5333 25.3305 12.1277 26.9598 13.1428 28.2435C12.1525 29.0087 10.9141 29.4532 9.5527 29.4532C6.30881 29.4532 3.65925 26.8368 3.65925 23.5782ZM15.5443 28.2435C16.5595 26.9598 17.1539 25.3554 17.1539 23.5782C17.1539 21.8252 16.5595 20.1966 15.5443 18.9129C16.5347 18.1477 17.773 17.7032 19.1345 17.7032C20.4966 17.7032 21.735 18.1477 22.7246 18.9129C21.7101 20.1966 21.1158 21.801 21.1158 23.5782C21.1158 25.3305 21.7101 26.9598 22.7253 28.2435C21.735 29.0087 20.4966 29.4532 19.1351 29.4532C17.773 29.4532 16.5347 29.0087 15.5443 28.2435ZM25.1274 28.2435C26.1426 26.9598 26.7369 25.3554 26.7369 23.5782C26.7369 21.8252 26.1426 20.1966 25.1274 18.9129C26.1177 18.1477 27.3555 17.7032 28.7176 17.7032C30.015 17.6993 31.2772 18.1246 32.3077 18.9129C31.2932 20.1966 30.6988 21.801 30.6988 23.5782C30.6988 25.3305 31.2932 26.9598 32.3083 28.2435C31.3174 29.0087 30.0797 29.4532 28.7182 29.4532C27.4206 29.4572 26.1581 29.0319 25.1274 28.2435ZM38.3006 29.4532C37.0032 29.4571 35.741 29.0318 34.7105 28.2435C35.725 26.9598 36.3194 25.3554 36.3194 23.5782C36.3194 21.8252 35.725 20.1966 34.7099 18.9129C35.7008 18.1477 36.9386 17.7032 38.3 17.7032C41.5445 17.7032 44.1941 20.3196 44.1941 23.5782C44.1941 26.8368 41.5445 29.4532 38.3006 29.4532Z" fill="#757575"/>
</svg>
