<svg width="48" height="48" viewBox="0 0 48 48" fill="none" xmlns="http://www.w3.org/2000/svg">
<path d="M27.6884 28.5857C27.6884 28.6718 27.7148 28.721 27.7657 28.721C27.8062 28.7177 27.8448 28.7024 27.8765 28.6771L42.2137 19.3637C42.4555 19.1949 42.7448 19.1074 43.0396 19.1142H46.1903C46.2981 19.1078 46.4061 19.1243 46.5071 19.1627C46.608 19.2011 46.6997 19.2604 46.7761 19.3368C46.8525 19.4131 46.9118 19.5048 46.9502 19.6058C46.9885 19.7068 47.0051 19.8147 46.9987 19.9225V25.9376C46.9987 26.6651 46.837 27.0833 46.1903 27.4734L42.3683 29.7683C42.3308 29.7957 42.2864 29.8121 42.2401 29.8158C42.1944 29.8158 42.1505 29.7806 42.1505 29.6506V22.6217C42.1505 22.5443 42.1241 22.4864 42.0714 22.4864C42.0315 22.4897 41.9933 22.5037 41.9607 22.5268L31.4823 29.3483C31.2468 29.5136 30.9651 29.6003 30.6775 29.5961H23.7294C23.6216 29.6025 23.5138 29.586 23.4129 29.5476C23.312 29.5093 23.2204 29.4499 23.1441 29.3735C23.0679 29.2971 23.0088 29.2054 22.9706 29.1044C22.9324 29.0034 22.9162 28.8955 22.9228 28.7878V20.1158C22.9228 20.0526 22.8947 19.9946 22.8455 19.9946C22.805 19.9974 22.7661 20.0114 22.733 20.035L15.8201 24.1874C15.7516 24.2295 15.7322 24.2629 15.7322 24.2963C15.7322 24.3297 15.7445 24.3543 15.7937 24.4035L20.7298 29.3483C20.7966 29.4151 20.8405 29.4643 20.8405 29.5241C20.8405 29.5838 20.7685 29.6084 20.6841 29.6084H16.2172C15.8658 29.6084 15.5969 29.5557 15.4089 29.3659L12.4216 26.3786C12.4113 26.3652 12.3983 26.3541 12.3835 26.3459C12.3687 26.3378 12.3523 26.3327 12.3355 26.3312C12.3023 26.3336 12.2702 26.3445 12.2424 26.3628L7.22722 29.3483C6.98876 29.5094 6.70662 29.5935 6.41889 29.5891H1.80966C1.70184 29.5955 1.59389 29.579 1.49293 29.5406C1.39196 29.5022 1.30026 29.4429 1.22389 29.3665C1.14751 29.2902 1.08819 29.1985 1.04983 29.0975C1.01147 28.9965 0.994945 28.8886 1.00134 28.7808V22.8765C1.00134 22.149 1.163 21.7307 1.80966 21.3442L5.65449 19.0334C5.68538 19.0131 5.72122 19.0015 5.75817 19C5.81615 19 5.84779 19.0615 5.84779 19.1951V27.0903C5.84779 27.1729 5.87063 27.2115 5.92511 27.2115C5.96662 27.2058 6.00595 27.1895 6.03932 27.1641L19.0323 19.355C19.2845 19.1839 19.5855 19.0994 19.8898 19.1142H26.8801C26.9879 19.1078 27.0959 19.1243 27.1968 19.1627C27.2978 19.2011 27.3895 19.2604 27.4659 19.3368C27.5423 19.4131 27.6016 19.5048 27.6399 19.6058C27.6783 19.7068 27.6948 19.8147 27.6884 19.9225V28.5857Z" fill="#757575"/>
</svg>
