<svg width="1em" height="1em" viewBox="0 0 24 24" fill="none" xmlns="http://www.w3.org/2000/svg"><path fill-rule="evenodd" clip-rule="evenodd" d="M8 5a1 1 0 0 1 1-1h6a1 1 0 1 1 0 2h-1v1h1.793a1.5 1.5 0 0 1 1.06.44L18.415 9H20.5a1.5 1.5 0 0 1 1.5 1.5v6a1.5 1.5 0 0 1-1.5 1.5h-2.086l-1.56 1.56a1.5 1.5 0 0 1-1.061.44H9.167a1.5 1.5 0 0 1-.9-.3L4.6 16.95a1.5 1.5 0 0 1-.6-1.2V14H3v1.5a.5.5 0 0 1-1 0v-4a.5.5 0 0 1 1 0V13h1v-1.5A1.5 1.5 0 0 1 5.5 10h.965L8.02 7.668A1.5 1.5 0 0 1 9.268 7H10V6H9a1 1 0 0 1-1-1Zm5 1v1h-2V6h2ZM9.535 9 7.98 11.332A1.5 1.5 0 0 1 6.732 12H6v3.5L9.333 18h6.253l1.56-1.56a1.5 1.5 0 0 1 .854-.426v-5.028a1.5 1.5 0 0 1-.854-.425L15.586 9h-6.05ZM19 11v5h1v-5h-1Z" fill="currentColor"/></svg>