<svg width="1em" height="1em" viewBox="0 0 24 24" fill="none" xmlns="http://www.w3.org/2000/svg"><path d="M17.78 12.22a.743.743 0 0 0-.53-.22l-.021.001h-.003L17.198 12H15.75a.75.75 0 0 1-.75-.75V10a.99.99 0 0 0-.033-.25 1 1 0 0 1-1.93.015 1.06 1.06 0 0 0-.037.273v1.212a.75.75 0 1 1-1.5 0V10a1.002 1.002 0 0 0-1.071-.998c-.53.037-.929.505-.929 1.036v1.212a.75.75 0 1 1-1.5 0V10a1.002 1.002 0 0 0-1.071-.998C6.399 9.04 6 9.508 6 10.038V15a1 1 0 0 0 1.066.998c.532-.034.934-.5.934-1.032V13.75a.75.75 0 1 1 1.5 0V15a1 1 0 0 0 1.066.998c.532-.034.934-.5.934-1.032V13.75a.75.75 0 1 1 1.5 0V15a1 1 0 0 0 1.066.998c.532-.034.934-.5.934-1.032V13.75a.75.75 0 1 1 1.5 0v1.5c0 .446.39.802.848.744.379-.049.652-.389.652-.77V12.75a.743.743 0 0 0-.22-.53Z" fill="currentColor"/><path d="M11.106 2.04C6.002 2.49 2 6.777 2 12c0 5.523 4.477 10 10 10s10-4.477 10-10c0-3.66-1.966-6.86-4.9-8.603-.01.05-.022.1-.036.151l-.424 1.934a8 8 0 1 1-5.591-1.426l-.112-.508a1.983 1.983 0 0 1 .17-1.509Z" fill="currentColor"/><path d="M11.906 3.298A1 1 0 0 1 12.861 2h2.28a1 1 0 0 1 .954 1.298L15.36 6.65a.5.5 0 0 1-.477.351H14.5v2a.5.5 0 0 1-1 0V7h-.382a.5.5 0 0 1-.477-.35l-.735-3.352Z" fill="currentColor"/></svg>