<svg width="1em" height="1em" viewBox="0 0 24 24" fill="none" xmlns="http://www.w3.org/2000/svg"><path fill="#fff" d="M0 0h24v24H0z"/><g clip-path="url(#motorcycle-frontal_svg__a)"><path d="M19.5 6h1c.83 0 1.5-.67 1.5-1.5S21.33 3 20.5 3h-1c-.83 0-1.5.67-1.5 1.5 0 .37.13.7.36.96l-.31.54h-1.39l-.07-.11a1.75 1.75 0 0 0-.28-.33l.12-.54a.985.985 0 0 0-.38-.98L14.4 2.8a3.99 3.99 0 0 0-4.8 0L7.95 4.04c-.31.23-.45.61-.38.98l.12.54c-.11.1-.2.21-.28.33L7.34 6H6.02l-.34-.59c.2-.25.32-.57.32-.91C6 3.67 5.33 3 4.5 3h-1C2.67 3 2 3.67 2 4.5S2.67 6 3.5 6h1c.12 0 .24-.01.35-.05l.14.25-1.71.85c-.25.13-.35.43-.23.67.13.25.43.35.67.23L5.62 7h1.06c-.43.74-.61 1.59-.52 2.45L6.78 15H5.5c-.28 0-.5.22-.5.5s.22.5.5.5h1.39l.08.72c.02.19.07.37.16.53A3.156 3.156 0 0 0 9.95 19H10v1c0 1.1.9 2 2 2s2-.9 2-2v-1c1.22 0 2.35-.69 2.9-1.79.07-.14.11-.29.13-.44l.09-.77h1.38c.28 0 .5-.22.5-.5s-.22-.5-.5-.5h-1.27l.61-5.55c.09-.86-.09-1.71-.52-2.45h1.05l1.9.95c.24.12.55.02.67-.23.12-.24.02-.54-.22-.67l-1.64-.82.15-.26c.09.02.18.03.27.03Zm-15-1h-1c-.28 0-.5-.22-.5-.5s.22-.5.5-.5h1c.28 0 .5.22.5.5s-.22.5-.5.5Zm10.55 11.41c-.22.36-.62.59-1.05.59v-1c0-1.1-.9-2-2-2s-2 .9-2 2v1h-.05c-.41 0-.8-.22-1-.58l-.8-7.19c-.03-.32 0-.64.13-.93l.7 3.27c.04.19.13.38.28.52l.89.89c.19.19.51.19.7 0 .2-.2.2-.51 0-.71l-.89-.89-.93-4.32-.43-2-.05-.22L10.2 3.6a3 3 0 0 1 3.6 0l1.65 1.24-.05.22-.43 2-.93 4.32-.89.89c-.2.2-.2.51 0 .71.19.19.51.19.7 0l.89-.89c.15-.14.24-.33.28-.52l.71-3.27c.11.29.15.61.12.93l-.8 7.18ZM19.5 4h1c.28 0 .5.22.5.5s-.22.5-.5.5h-1c-.28 0-.5-.22-.5-.5s.22-.5.5-.5ZM12 8c-1.1 0-2-.9-2-2s.9-2 2-2 2 .9 2 2-.9 2-2 2Zm0-3c-.55 0-1 .45-1 1s.45 1 1 1 1-.45 1-1-.45-1-1-1Z" fill="currentColor"/></g><defs><clipPath id="motorcycle-frontal_svg__a"><path fill="#fff" transform="translate(2 2)" d="M0 0h20v20H0z"/></clipPath></defs></svg>